<?xml version="1.0" encoding="UTF-8" standalone="no"?>
<svg
   xmlns:dc="http://purl.org/dc/elements/1.1/"
   xmlns:cc="http://creativecommons.org/ns#"
   xmlns:rdf="http://www.w3.org/1999/02/22-rdf-syntax-ns#"
   xmlns:svg="http://www.w3.org/2000/svg"
   xmlns="http://www.w3.org/2000/svg"
   id="svg8"
   version="1.1"
   viewBox="0 0 18.00659 8.8025265"
   height="8.8025265mm"
   width="18.00659mm">
  <defs
     id="defs2" />
  <metadata
     id="metadata5">
    <rdf:RDF>
      <cc:Work
         rdf:about="">
        <dc:format>image/svg+xml</dc:format>
        <dc:type
           rdf:resource="http://purl.org/dc/dcmitype/StillImage" />
        <dc:title></dc:title>
      </cc:Work>
    </rdf:RDF>
  </metadata>
  <g
     transform="translate(505.9625,-44.989143)"
     id="layer1">
    <g
       id="flowRoot815"
       style="font-style:normal;font-weight:normal;font-size:18.66666603px;line-height:1.25;font-family:sans-serif;letter-spacing:0px;word-spacing:0px;fill:#000000;fill-opacity:1;stroke:none"
       transform="matrix(0.26458333,0,0,0.26458333,5.1026786,1.4410342)"
       aria-label="DOUBLE 
TROUBLE">
      <path
         id="path825"
         style="font-style:normal;font-variant:normal;font-weight:normal;font-stretch:normal;font-family:'XPLOR Bold';-inkscape-font-specification:'XPLOR Bold, ';fill:#df1a3a;fill-opacity:1"
         d="m -1922.112,167.65311 c 0,0.0187 0.8213,0.18667 1.6053,0.672 0.019,0.0373 0.056,0.056 0.093,0.056 0.037,0 0.093,-0.056 0.1306,-0.0933 0.056,-0.0747 0.019,-0.18667 -0.056,-0.224 -0.8026,-0.54134 -1.68,-0.70934 -1.7173,-0.70934 -0.075,-0.0187 -0.168,0.0373 -0.1867,0.112 -0.019,0.0933 0.037,0.18667 0.1307,0.18667 z m -5.1147,12.39467 c -1.232,0.37333 -0.6346,2.352 0.6907,2.072 2.3707,-0.48534 4.8907,-1.75467 6.4773,-3.60267 1.4374,-1.64267 1.8854,-3.67733 1.512,-5.78667 -0.3546,-2.09066 -1.7546,-3.808 -3.808,-4.34933 -1.0826,-0.31733 -2.24,-0.26133 -3.3226,-0.0187 -0.6907,0.13067 -1.4934,0.35467 -2.0534,0.76534 -0.4853,0.35466 -0.728,0.93333 -0.392,1.49333 0.168,0.29867 0.5227,0.504 0.896,0.54133 z m 8.0267,-10.45334 c 0.037,0.056 0.093,0.0933 0.1493,0.0933 0.019,0 0.037,-0.0187 0.075,-0.0187 0.075,-0.0373 0.112,-0.14933 0.075,-0.224 -0.1867,-0.35467 -0.392,-0.56 -0.6347,-0.784 l -0.1493,0.112 -0.093,0.13067 c 0.2427,0.20533 0.4294,0.37333 0.5787,0.69066 z m -8.1947,0.0373 0.075,-0.20534 c 0,0 0.037,-0.0187 0.093,-0.0373 l 0.2614,-0.0933 c 0.2053,-0.0933 0.5413,-0.18667 0.9333,-0.28 0.1867,-0.056 0.4107,-0.0933 0.6347,-0.13067 0.224,-0.0373 0.448,-0.0747 0.728,-0.0933 0.2426,-0.0187 0.5226,-0.0373 0.784,-0.0373 0.2613,0 0.5226,0.0373 0.784,0.0747 0.1493,0.0187 0.28,0.0373 0.4106,0.0747 l 0.1867,0.0373 0.1867,0.056 c 0.2613,0.0747 0.4853,0.168 0.7093,0.28 0.112,0.056 0.224,0.112 0.3173,0.168 0.1307,0.056 0.224,0.13067 0.3174,0.18667 0.093,0.0747 0.1866,0.13066 0.2613,0.20533 0.093,0.056 0.1493,0.13067 0.224,0.20533 0.075,0.056 0.1493,0.14934 0.2053,0.224 0.056,0.056 0.1307,0.112 0.168,0.18667 l 0.2614,0.31733 c 0.1306,0.18667 0.1866,0.29867 0.1866,0.29867 0,0 -0.075,-0.112 -0.2053,-0.28 -0.056,-0.0933 -0.168,-0.20533 -0.2613,-0.31733 -0.056,-0.0747 -0.112,-0.13067 -0.168,-0.18667 -0.075,-0.056 -0.1307,-0.13067 -0.2054,-0.20533 -0.075,-0.0747 -0.1493,-0.13067 -0.2426,-0.20534 -0.093,-0.056 -0.168,-0.112 -0.2614,-0.18666 -0.093,-0.056 -0.1866,-0.112 -0.3173,-0.168 -0.112,-0.056 -0.2053,-0.112 -0.3173,-0.14934 -0.224,-0.0933 -0.4667,-0.18666 -0.7094,-0.24266 l -0.1866,-0.056 -0.1867,-0.0373 -0.392,-0.056 c -0.2613,-0.0187 -0.5227,-0.0373 -0.7653,-0.0187 -0.2614,0 -0.5227,0.0187 -0.7654,0.0373 -0.2613,0.0373 -0.4853,0.0747 -0.7093,0.13067 -0.224,0.0373 -0.4107,0.0933 -0.5973,0.14933 -0.3734,0.112 -0.6907,0.224 -0.896,0.29867 -0.112,0.0373 -0.1867,0.0747 -0.2427,0.0933 l -0.093,0.056 c -0.075,0.0373 -0.168,0 -0.2054,-0.0933 z m 6.5894,5.992 c -0.037,0.0747 -0.056,0.14933 -0.093,0.224 0,-0.0187 -0.075,0.168 -0.075,0.168 -0.093,0.18666 -0.2054,0.35466 -0.3174,0.54133 -0.224,0.35467 -0.3546,0.48533 -0.7093,0.87733 -0.1493,0.14934 -0.2987,0.28 -0.4293,0.392 l -0.168,0.14934 c -0.019,0 -0.1494,0.112 -0.168,0.112 -0.336,0.24266 -0.6907,0.46666 -1.0454,0.65333 -0.3173,0.18667 -0.6533,0.35467 -0.9893,0.504 -0.056,0.0187 -0.112,0.056 -0.168,0.0747 -0.037,0.0187 -0.075,0.0373 -0.093,0.0373 v -8.92267 c 0.093,-0.0187 0.3173,-0.0373 0.3546,-0.056 0.336,-0.0373 0.7094,-0.0373 1.064,-0.0187 0.093,0 0.1867,0 0.28,0.0187 h 0.075 c 0.168,0.0373 0.3733,0.0747 0.5413,0.13067 0.093,0.0373 0.1867,0.056 0.2614,0.0933 h 0.037 c 0,0.0187 0.019,0.0187 0.056,0.0373 0.168,0.0747 0.336,0.18666 0.4853,0.29866 0.019,0 0.1494,0.0933 0.1494,0.112 l 0.224,0.20534 c 0,0.0187 0.112,0.13066 0.1306,0.14933 l 0.1494,0.224 c 0.2986,0.48533 0.4106,0.84 0.5413,1.38133 0.224,0.93334 0.1867,1.736 -0.093,2.61334 z" />
      <path
         id="path827"
         style="font-style:normal;font-variant:normal;font-weight:normal;font-stretch:normal;font-family:'XPLOR Bold';-inkscape-font-specification:'XPLOR Bold, ';fill:#df1a3a;fill-opacity:1"
         d="m -1911.1363,166.68952 c -2.7813,-0.76533 -4.76,1.97867 -5.32,4.33067 -0.6347,2.66933 -0.336,6.40266 1.9227,8.25066 0.952,0.80267 2.1653,1.13867 3.3973,0.80267 1.1947,-0.29867 2.1653,-1.30667 2.7253,-2.352 0.7094,-1.30667 0.9707,-2.8 0.9894,-4.29333 0,-2.576 -0.8774,-5.936 -3.7147,-6.73867 z m -0.9707,11.18133 c -0.056,0 -0.112,0 -0.168,-0.0187 0.093,0 -0.1866,-0.0373 -0.224,-0.0373 -0.037,-0.0187 -0.056,-0.0187 -0.075,-0.0187 l -0.056,-0.0373 c -0.093,-0.056 -0.1867,-0.13066 -0.2987,-0.18666 l -0.037,-0.0373 c -0.112,-0.056 -0.1867,-0.168 -0.28,-0.26133 -0.168,-0.18667 -0.224,-0.29867 -0.3734,-0.54133 -0.5973,-0.98934 -0.7466,-2.20267 -0.7466,-3.36 0,-1.15734 0.224,-2.352 0.8026,-3.34134 0.4294,-0.728 0.9894,-1.08266 1.5494,-1.08266 h 0.168 c -0.093,0 0.168,0.056 0.2053,0.056 0.037,0 0.056,0.0187 0.075,0.0187 0.019,0 0.037,0.0187 0.056,0.0373 0.093,0.056 0.168,0.112 0.28,0.168 l 0.056,0.056 c 0.112,0.0747 0.1866,0.168 0.28,0.26133 0.168,0.18667 0.224,0.28 0.3733,0.52267 0.5973,0.98933 0.7467,2.24 0.7467,3.36 -0.019,1.19466 -0.224,2.352 -0.8027,3.36 -0.4293,0.728 -0.9893,1.064 -1.5307,1.08266 z m 4.2,-3.50933 c 0,0.112 -0.019,0.224 -0.019,0.31733 -0.019,0.0933 -0.019,0.20534 -0.037,0.29867 l -0.056,0.31733 c -0.019,0.112 -0.037,0.224 -0.075,0.336 -0.019,0.112 -0.056,0.224 -0.075,0.336 -0.037,0.13067 -0.075,0.24267 -0.112,0.336 -0.037,0.112 -0.075,0.24267 -0.1307,0.35467 -0.056,0.112 -0.093,0.224 -0.1493,0.336 -0.112,0.224 -0.224,0.46667 -0.3547,0.65333 -0.1306,0.20534 -0.2613,0.41067 -0.4293,0.59734 -0.3173,0.35466 -0.6533,0.63466 -0.952,0.85866 -0.3173,0.224 -0.5973,0.37334 -0.8027,0.448 -0.112,0.0373 -0.2053,0.0747 -0.28,0.0933 l -0.075,0.0187 c -0.112,0 -0.1867,-0.0747 -0.2054,-0.168 0,-0.0933 0.075,-0.18666 0.168,-0.18666 0,0 0.056,0 0.075,-0.0187 0.019,0 0.093,-0.0187 0.1867,-0.056 0.1866,-0.0747 0.4666,-0.18667 0.7653,-0.392 0.28,-0.168 0.616,-0.42933 0.9333,-0.76533 0.168,-0.168 0.3174,-0.35467 0.448,-0.54134 0.1494,-0.18666 0.2427,-0.41066 0.3734,-0.616 0.056,-0.112 0.093,-0.224 0.1493,-0.336 0.056,-0.112 0.093,-0.224 0.1493,-0.31733 l 0.112,-0.336 c 0.037,-0.112 0.075,-0.224 0.093,-0.336 0.037,-0.112 0.056,-0.20533 0.093,-0.31733 l 0.056,-0.29867 c 0.037,-0.112 0.037,-0.20533 0.056,-0.31733 0.019,-0.0933 0.037,-0.18667 0.037,-0.29867 0.019,-0.18667 0.037,-0.35467 0.037,-0.504 0.019,-0.13067 0.019,-0.26133 0.019,-0.37333 v -0.336 c 0,0 0,0.13066 0.019,0.336 v 0.37333 c 0,0.14933 -0.019,0.31733 -0.019,0.504 z" />
      <path
         id="path829"
         style="font-style:normal;font-variant:normal;font-weight:normal;font-stretch:normal;font-family:'XPLOR Bold';-inkscape-font-specification:'XPLOR Bold, ';fill:#df1a3a;fill-opacity:1"
         d="m -1896.2131,172.79835 c -0.037,-1.08267 -0.1307,-2.16534 -0.1307,-3.22934 0,-1.624 -2.4827,-1.624 -2.4827,0 -0.019,2.05334 0.2614,4.088 0.1494,6.16 -0.019,0.616 -0.056,0.80267 -0.1494,1.30667 -0.037,0.224 -0.093,0.448 -0.168,0.672 -0.019,0.112 -0.056,0.224 -0.093,0.31733 -0.019,0.056 -0.037,0.0747 -0.037,0.0933 -0.037,0.0373 -0.056,0.0747 -0.075,0.112 -0.075,0.168 -0.168,0.31733 -0.2613,0.448 0.019,0 0,0.0187 -0.056,0.112 0.019,-0.0373 0.037,-0.0747 0.056,-0.112 l -0.112,0.168 c -0.056,0.0373 -0.093,0.0747 -0.1494,0.13066 l -0.075,0.0747 c 0.019,-0.0373 0.056,-0.056 0.075,-0.0747 -0.037,0.0187 -0.112,0.0933 -0.1493,0.112 -0.056,0.0373 -0.112,0.0747 -0.1867,0.112 -0.019,0 -0.037,0.0187 -0.075,0.0373 0.019,-0.0187 0.056,-0.0373 0.075,-0.0373 0.093,-0.056 -0.1306,0.056 -0.168,0.056 -0.1306,0.0373 -0.2426,0.0747 -0.3733,0.0933 0.093,-0.0187 -0.224,0.0187 -0.2427,0.0187 h -0.4106 c -0.3547,0 -0.2987,-0.0187 -0.56,-0.0747 -0.093,-0.0187 -0.1867,-0.056 -0.2614,-0.0747 -0.019,0 -0.037,-0.0187 -0.075,-0.0187 0.019,0 0.037,0 0.075,0.0187 0.075,0.0187 -0.168,-0.0747 -0.2053,-0.0747 l -0.224,-0.14933 c 0.1307,0.0933 -0.1493,-0.13067 -0.1867,-0.168 -0.019,-0.0187 -0.093,-0.112 -0.1306,-0.14933 -0.019,-0.0187 -0.019,-0.0187 0,0 l -0.1307,-0.18667 c -0.056,-0.0747 -0.093,-0.18667 -0.1493,-0.29867 0,-0.0187 -0.019,-0.0373 -0.019,-0.0373 0.056,0.20533 -0.093,-0.18667 0,0 0,-0.0187 -0.019,-0.0373 -0.019,-0.0747 -0.093,-0.20533 -0.1493,-0.42933 -0.2053,-0.65333 -0.019,-0.13067 -0.056,-0.24267 -0.075,-0.35467 0,-0.0747 -0.019,-0.14933 -0.037,-0.20533 0.019,0.056 0.019,0.056 0,-0.0373 v -0.056 c -0.28,-2.25867 0.168,-4.57334 0.3733,-6.79467 l 0.056,-0.48533 c 0.056,-0.672 -0.616,-1.25067 -1.2506,-1.25067 -0.728,0 -1.1947,0.57867 -1.2507,1.25067 -0.336,3.752 -1.9787,10.50933 2.8,12.152 2.2027,0.74666 4.7227,-0.13067 5.7493,-2.24 0.9707,-2.016 0.896,-4.424 0.7654,-6.608 z m -0.4667,3.36 c -0.093,0.85866 -0.2613,1.69866 -0.5413,2.48266 -0.1494,0.37334 -0.3174,0.728 -0.5227,1.04534 -0.2053,0.31733 -0.4293,0.59733 -0.672,0.80266 -0.2427,0.20534 -0.504,0.37334 -0.7467,0.48534 -0.2426,0.0933 -0.4666,0.168 -0.6346,0.20533 -0.093,0.0187 -0.1867,0.0187 -0.2614,0.0373 -0.056,0 -0.1306,0.0187 -0.168,0.0187 -0.112,0 -0.1493,0 -0.1493,0 l 0.1493,-0.0187 c 0.037,0 0.112,0 0.168,-0.0187 0.075,0 0.168,-0.0187 0.2427,-0.0373 0.1867,-0.0373 0.4107,-0.112 0.6347,-0.224 0.2426,-0.112 0.504,-0.28 0.728,-0.48533 0.224,-0.224 0.448,-0.48533 0.6346,-0.82133 0.2054,-0.31734 0.3547,-0.65334 0.4854,-1.02667 0.2426,-0.76533 0.392,-1.60533 0.4666,-2.464 0.075,-0.84 0.075,-1.71733 0.037,-2.52 -0.037,-0.80267 -0.093,-1.54933 -0.168,-2.184 -0.075,-0.63467 -0.1494,-1.15733 -0.224,-1.53067 -0.056,-0.37333 -0.093,-0.56 -0.093,-0.56 -0.019,-0.112 0.037,-0.224 0.1307,-0.24266 0.112,-0.0187 0.2053,0.0373 0.224,0.168 l 0.093,0.57866 c 0.056,0.37334 0.112,0.91467 0.168,1.54934 0.075,0.65333 0.112,1.41866 0.1307,2.20266 0,0.82134 -0.019,1.69867 -0.112,2.55734 z m -2.4453,1.96 c 0.019,-0.0373 0.019,-0.056 0.037,-0.0747 z" />
      <path
         id="path831"
         style="font-style:normal;font-variant:normal;font-weight:normal;font-stretch:normal;font-family:'XPLOR Bold';-inkscape-font-specification:'XPLOR Bold, ';fill:#df1a3a;fill-opacity:1"
         d="m -1894.2312,174.73811 c 0,1.41867 0,2.78133 0.019,3.88267 v 0.0373 c -0.1493,0.57867 0.1494,1.26933 0.9147,1.232 2.1093,-0.0933 4.7973,-0.616 6.272,-2.25867 1.232,-1.41866 1.0827,-3.45333 -0.037,-4.90933 -0.448,-0.56 -1.008,-0.84 -1.6427,-0.97067 0.5787,-0.84 0.8027,-1.86666 0.5413,-2.912 -0.2613,-1.064 -1.12,-1.848 -2.0906,-2.24 -1.176,-0.46666 -2.5387,-0.0933 -3.528,0.54134 -0.037,0.0373 -0.075,0.0373 -0.093,0.0747 -0.2426,0.14934 -0.3733,0.41067 -0.3733,0.728 v 5.30134 c -0.28,0.224 -0.4293,0.57866 -0.3173,0.98933 0.056,0.20533 0.168,0.37333 0.336,0.504 z m 2.576,-6.496 c 0.019,0 0.037,0 0.112,0 h 0.28 c 0.037,0 0.056,0 0.075,0 l 0.037,0.0187 c 0.093,0.0187 0.168,0.0373 0.2613,0.0747 h 0.056 c 0.019,0.0187 0.019,0.0187 0.037,0.0187 0.075,0.0373 0.168,0.0747 0.2427,0.13067 l 0.112,0.0747 c 0.056,0.0373 0.112,0.0933 0.1493,0.13067 0,0.0373 0.075,0.0933 0.093,0.13067 0.037,0.0373 0.075,0.0933 0.093,0.13066 0.037,0.0747 0.075,0.13067 0.093,0.18667 -0.056,-0.0933 0.056,0.14933 0.075,0.20533 0,0.056 0.019,0.0933 0.019,0.14934 0,-0.0373 0.037,0.13066 0.037,0.168 0,0.0933 -0.019,0.18666 -0.019,0.28 0,0.0187 -0.019,0.0373 -0.037,0.0933 -0.056,0.336 -0.224,0.616 -0.4293,0.87733 -0.3734,0.392 -0.6534,0.56 -1.1574,0.84 -0.2613,0.14934 -0.56,0.26134 -0.8586,0.35467 -0.019,-1.288 -0.019,-2.55733 -0.037,-3.64 0.224,-0.0933 0.4107,-0.14933 0.7467,-0.20533 z m 2.352,5.376 c 0.019,0 0.019,0.0187 0.019,0.0187 h 0.075 c 0.093,0.0187 0.168,0.056 0.2613,0.0747 h 0.037 c 0.019,0.0187 0.037,0.0187 0.056,0.0187 0.075,0.056 0.1493,0.0933 0.2053,0.13067 -0.168,-0.0933 0.056,0.0747 0.093,0.0933 0.019,0.0373 0.037,0.0747 0.075,0.0933 0,0 0.019,0.056 0.056,0.0933 0.1307,0.20533 0.1493,0.28 0.224,0.48533 0.019,0.0933 0.037,0.18667 0.075,0.28 l 0.019,0.168 c 0.019,0.14933 0.019,0.29867 0.019,0.42933 v 0.0187 c -0.019,0 -0.019,0.0187 -0.019,0.0187 0,0.112 -0.056,0.224 -0.075,0.31733 v 0.0187 c -0.019,0 -0.019,0.0187 -0.019,0.0187 l -0.093,0.20534 c -0.037,0.0187 -0.056,0.056 -0.075,0.0933 -0.019,0.0187 -0.075,0.0747 -0.093,0.112 -0.093,0.0933 -0.2054,0.20533 -0.3174,0.29867 0,0.0187 0,0.0187 -0.019,0.0187 0,0 -0.019,0 -0.019,0.0187 -0.093,0.0747 -0.1867,0.112 -0.28,0.168 -0.1307,0.0747 -0.2613,0.168 -0.4107,0.24267 -0.075,0.0187 -0.1493,0.056 -0.224,0.0933 l -0.093,0.0373 c -0.3173,0.13067 -0.6347,0.224 -0.9707,0.336 -0.5226,0.14934 -1.0453,0.26134 -1.5866,0.336 v -3.37866 c 0.224,-0.112 0.4106,-0.20534 0.6346,-0.28 v -0.0187 c 0.037,0 0.037,-0.0187 0.093,-0.0373 0.075,-0.0187 0.168,-0.056 0.2426,-0.0933 0.1867,-0.0747 0.3547,-0.13066 0.5414,-0.18666 0.168,-0.0747 0.3733,-0.112 0.56,-0.168 0.093,0 0.1866,-0.0187 0.28,-0.056 h 0.056 c 0.037,0 0.093,0 0.1306,-0.0187 0.1867,-0.0187 0.3734,0 0.5414,0 z m 1.6613,3.77067 c 0.056,-0.056 0.112,-0.112 0.168,-0.18667 l 0.1307,-0.18667 c 0.056,-0.056 0.093,-0.13066 0.1493,-0.18666 0.037,-0.0747 0.056,-0.13067 0.112,-0.20534 0.019,-0.056 0.037,-0.13066 0.075,-0.18666 0.037,-0.0747 0.056,-0.13067 0.075,-0.18667 0.019,-0.0187 0.019,-0.0747 0.037,-0.0933 0,-0.0187 0.019,-0.056 0.019,-0.0933 l 0.056,-0.14933 c 0,-0.056 0,-0.112 0.019,-0.18667 0.019,-0.0933 0.019,-0.18666 0.019,-0.24266 0.019,-0.13067 0.019,-0.20534 0.019,-0.20534 v -0.0373 c 0,-0.0747 0.075,-0.13067 0.1494,-0.13067 0.093,0 0.1306,0.0933 0.1306,0.168 0,0 0,0.0933 -0.019,0.224 0,0.0933 -0.019,0.18667 -0.056,0.29867 0,0.056 0,0.112 -0.019,0.168 -0.037,0.056 -0.037,0.112 -0.075,0.168 0,0.0373 0,0.0747 -0.019,0.0933 -0.019,0.0373 -0.019,0.0747 -0.037,0.0933 -0.037,0.0747 -0.075,0.13066 -0.093,0.20533 l -0.112,0.18667 c -0.037,0.0747 -0.075,0.14933 -0.1307,0.20533 -0.037,0.0747 -0.075,0.13067 -0.1306,0.20533 l -0.168,0.18667 c -0.075,0.056 -0.112,0.14933 -0.168,0.20533 -0.075,0.056 -0.1307,0.13067 -0.1867,0.168 -0.1307,0.13067 -0.2613,0.224 -0.392,0.31734 -0.075,0.056 -0.1493,0.0933 -0.2053,0.14933 -0.037,0.0187 -0.075,0.0373 -0.093,0.056 -0.037,0.0187 -0.075,0.056 -0.112,0.056 -0.075,0.0373 -0.1493,0.0747 -0.2053,0.13067 -0.075,0.0187 -0.1307,0.056 -0.2053,0.0747 -0.1494,0.0747 -0.2614,0.13067 -0.3734,0.168 -0.1306,0.056 -0.2426,0.0747 -0.336,0.112 -0.093,0.0373 -0.1866,0.056 -0.2426,0.0747 -0.1494,0.0187 -0.224,0.056 -0.224,0.056 0,0 0.075,-0.0373 0.2053,-0.0747 0.075,-0.0187 0.168,-0.056 0.2613,-0.0933 0.093,-0.0187 0.2054,-0.056 0.2987,-0.112 0.1307,-0.056 0.2427,-0.112 0.392,-0.168 0.075,-0.0373 0.112,-0.0933 0.1867,-0.112 0.056,-0.0373 0.1306,-0.0933 0.1866,-0.13067 l 0.112,-0.056 c 0.019,-0.0187 0.056,-0.056 0.093,-0.0747 0.056,-0.056 0.1306,-0.0933 0.1866,-0.14934 0.1307,-0.0933 0.2427,-0.20533 0.3547,-0.31733 0.056,-0.056 0.1307,-0.13067 0.168,-0.20533 z" />
      <path
         id="path833"
         style="font-style:normal;font-variant:normal;font-weight:normal;font-stretch:normal;font-family:'XPLOR Bold';-inkscape-font-specification:'XPLOR Bold, ';fill:#df1a3a;fill-opacity:1"
         d="m -1879.5895,180.24344 c -0.168,-0.616 -0.8213,-0.98933 -1.4186,-0.82133 l -1.008,0.28 c 0,-0.87733 0,-1.77333 0,-2.65067 v -3.528 c 0,-0.98933 0,-1.97866 0,-2.94933 v -1.232 c 0,-0.63467 -0.5227,-1.15733 -1.1574,-1.15733 -0.6346,0 -1.1573,0.52266 -1.1573,1.15733 v 1.232 c 0,0.98933 0,1.97867 0,2.968 v 3.528 c 0,0.97067 0,1.96 0,2.94933 v 1.232 c 0,0.74667 0.7467,1.32534 1.4747,1.12 0.8026,-0.24266 1.6053,-0.46666 2.4266,-0.69066 0.019,0 0.019,-0.0187 0.037,-0.0187 0.616,-0.168 0.9706,-0.80267 0.8026,-1.41867 z m -2.9306,-11.256 c 0.056,0 0.112,0.056 0.112,0.112 l -0.112,9.76267 -0.112,-9.76267 c 0,-0.056 0.037,-0.112 0.112,-0.112 z" />
      <path
         id="path835"
         style="font-style:normal;font-variant:normal;font-weight:normal;font-stretch:normal;font-family:'XPLOR Bold';-inkscape-font-specification:'XPLOR Bold, ';fill:#df1a3a;fill-opacity:1"
         d="m -1868.0334,174.29234 c -0.168,-0.52267 -0.672,-0.76534 -1.176,-0.672 -2.2214,0.448 -4.536,1.30666 -6.5147,2.632 l 0.112,-1.97867 c 0.8027,-0.448 1.5867,-0.87733 2.3893,-1.288 1.064,-0.57867 0.112,-2.184 -0.952,-1.60533 l -1.3066,0.69066 c 0.075,-1.344 0.1866,-2.66933 0.224,-4.032 l 1.8853,-0.672 c 0.9333,-0.29866 1.8667,-0.616 2.8,-0.896 1.1387,-0.392 0.6533,-2.20266 -0.5227,-1.82933 -1.008,0.336 -2.0346,0.672 -3.024,1.02667 -0.6906,0.224 -1.3813,0.46666 -2.0533,0.74666 -0.504,0.168 -1.2507,0.37334 -1.3813,0.98934 -0.112,0.46666 0.093,0.82133 0.4106,1.02666 -0.056,1.49334 -0.1866,3.024 -0.2613,4.536 0,0.0747 -0.019,0.13067 -0.019,0.18667 -0.3733,0.31733 -0.336,0.84 -0.056,1.19467 -0.056,1.30666 -0.1306,2.59466 -0.2053,3.88266 -0.056,0.85867 1.0453,1.19467 1.6053,0.65334 0.1307,-0.13067 0.28,-0.224 0.4294,-0.35467 l 0.1866,-0.168 c 0.1307,-0.0933 0.28,-0.168 0.392,-0.26133 0.28,-0.20534 0.5787,-0.37334 0.8774,-0.57867 1.68,-1.02667 3.5466,-1.71733 5.4693,-2.09067 0.5227,-0.0933 0.8027,-0.672 0.6907,-1.13866 z m -0.392,0.14933 c -0.019,0.0373 -0.019,0.0373 -0.019,0.056 v 0.056 c -0.037,0.0933 -0.075,0.20533 -0.1867,0.28 -0.093,0.0933 -0.224,0.168 -0.3733,0.224 -0.168,0.056 -0.336,0.0933 -0.5413,0.13067 l -0.28,0.056 c -0.019,0 -0.037,0 -0.075,0.0187 -0.019,0 -0.056,0 -0.075,0.0187 -0.056,0 -0.112,0.0187 -0.168,0.0187 -0.2053,0.056 -0.4293,0.112 -0.6346,0.18666 -0.2427,0.0747 -0.4667,0.13067 -0.7094,0.224 -0.1306,0.0187 -0.2426,0.056 -0.3546,0.0747 -0.112,0.056 -0.2427,0.0933 -0.3547,0.13067 -0.2427,0.0933 -0.448,0.20533 -0.7093,0.29866 l -0.6534,0.28 c -0.224,0.112 -0.4293,0.224 -0.616,0.29867 -0.1866,0.112 -0.3733,0.224 -0.5226,0.336 -0.168,0.112 -0.3174,0.168 -0.4294,0.26133 -0.1306,0.0933 -0.2426,0.168 -0.336,0.24267 l -0.2053,0.14933 c 0.037,-0.0373 0.093,-0.0747 0.1867,-0.14933 0.093,-0.0747 0.2053,-0.168 0.336,-0.26133 0.112,-0.0933 0.2613,-0.168 0.4293,-0.28 0.1493,-0.112 0.336,-0.224 0.5227,-0.336 0.168,-0.0933 0.3733,-0.224 0.5973,-0.31734 0.2053,-0.112 0.4293,-0.20533 0.6533,-0.31733 0.2427,-0.112 0.448,-0.224 0.7094,-0.31733 l 0.336,-0.112 c 0.1306,-0.0373 0.2426,-0.0933 0.3546,-0.13067 0.2614,-0.0933 0.4667,-0.168 0.7094,-0.24267 0.224,-0.0747 0.4666,-0.13066 0.6346,-0.18666 l 0.168,-0.056 c 0.037,0 0.056,-0.0187 0.093,-0.0187 l 0.075,-0.0187 c 0.112,-0.0187 0.1867,-0.056 0.28,-0.0747 0.1867,-0.0373 0.3547,-0.0747 0.4854,-0.13067 0.1306,-0.0373 0.2426,-0.112 0.2986,-0.18667 0.056,-0.056 0.075,-0.112 0.075,-0.168 v -0.0187 c 0,0 0,-0.0187 0,-0.0187 v -0.0373 c 0,-0.0747 0.075,-0.112 0.1493,-0.112 0.093,0 0.1494,0.056 0.1494,0.14933 z" />
      <path
         id="path837"
         style="font-style:normal;font-variant:normal;font-weight:normal;font-stretch:normal;font-family:'XPLOR Bold';-inkscape-font-specification:'XPLOR Bold, ';fill:#df1a3a;fill-opacity:1"
         d="m -1924.1093,186.075 c -0.672,-0.056 -1.3253,-0.13067 -1.9973,-0.168 0.019,-0.26134 0.056,-0.52267 0.075,-0.76534 0.037,-0.54133 -0.4854,-1.008 -1.0267,-1.008 -0.616,0 -0.9893,0.46667 -1.0267,1.008 l -0.056,0.784 c -0.8213,0.056 -1.624,0.14934 -2.464,0.20534 -1.3066,0.0747 -1.3066,2.14666 0,2.072 0.784,-0.0373 1.512,-0.14934 2.2774,-0.224 -0.224,2.968 -0.3547,5.95466 -0.168,8.86666 0.093,1.344 2.1093,1.36267 2.0533,0 -0.1867,-2.93066 -0.037,-5.936 0.168,-8.904 0.728,0.0373 1.456,0.112 2.1653,0.18667 0.5414,0.056 0.9894,-0.504 0.9894,-1.04533 0,-0.57867 -0.448,-0.97067 -0.9894,-1.008 z m -2.8373,3.04266 c 0,0.13067 -0.019,0.24267 -0.037,0.41067 -0.019,0.14933 -0.019,0.336 -0.037,0.52267 l -0.056,1.30666 c -0.019,0.46667 -0.019,0.98934 -0.037,1.512 -0.019,2.03467 0.019,4.06934 0.019,4.06934 0,0.0747 -0.075,0.14933 -0.168,0.14933 -0.093,0 -0.1494,-0.0747 -0.1494,-0.14933 v -0.0187 c 0,0 0.037,-2.016 0.1494,-4.06933 0.019,-0.504 0.037,-1.02667 0.075,-1.512 0.037,-0.46667 0.075,-0.91467 0.112,-1.288 l 0.056,-0.52267 c 0.019,-0.18667 0.056,-0.29867 0.056,-0.41067 0.037,-0.224 0.037,-0.336 0.037,-0.336 0,0 0,0.112 -0.019,0.336 z" />
      <path
         id="path839"
         style="font-style:normal;font-variant:normal;font-weight:normal;font-stretch:normal;font-family:'XPLOR Bold';-inkscape-font-specification:'XPLOR Bold, ';fill:#df1a3a;fill-opacity:1"
         d="m -1915.8,189.41862 c 0.2427,-0.18667 0.4667,-0.41067 0.672,-0.65333 0.9147,-1.12 1.3067,-2.52 0.952,-3.92 -0.336,-1.288 -1.3253,-2.24 -2.5387,-2.72534 -1.4,-0.54133 -3.0426,-0.0933 -4.2746,0.672 l -0.112,0.0933 c -0.2427,0.18666 -0.4294,0.46666 -0.4294,0.896 l 0.056,10.752 c 0,1.43733 2.2214,1.43733 2.2214,0 0,-1.13867 -0.019,-2.27734 -0.019,-3.43467 0.5227,-0.112 1.0453,-0.28 1.5493,-0.504 l 2.2587,3.78933 c 0.2053,0.35467 0.5973,0.54134 0.9893,0.54134 0.1867,0 0.392,-0.056 0.56,-0.168 0.5414,-0.29867 0.728,-1.008 0.392,-1.54934 z m -3.8267,-6.58933 c 0,0 0.075,-0.0373 0.224,-0.0747 0.037,-0.0187 0.1307,-0.0373 0.2427,-0.0747 0.093,-0.0187 0.2053,-0.0373 0.336,-0.0747 l 0.1867,-0.0187 c 0.075,-0.0187 0.1493,-0.0187 0.224,-0.0187 0.075,-0.0187 0.1493,-0.0187 0.224,-0.0187 h 0.2426 c 0.075,0 0.1494,0 0.2427,0.0187 0.075,0 0.1493,0.0187 0.224,0.0187 l 0.2613,0.056 c 0.075,0.0187 0.168,0.0373 0.2427,0.0747 0.168,0.056 0.336,0.112 0.4853,0.20533 0.1494,0.0747 0.2987,0.14933 0.4294,0.26133 0.1306,0.0933 0.2613,0.18667 0.3546,0.29867 0.112,0.0933 0.2054,0.20533 0.2987,0.29867 0.168,0.18666 0.28,0.37333 0.3547,0.504 0.056,0.0747 0.075,0.13066 0.093,0.168 l 0.037,0.056 c 0.037,0.0933 0,0.20533 -0.093,0.24266 -0.093,0.0373 -0.1867,0 -0.2427,-0.0747 v -0.0187 c 0,0 0,-0.0187 -0.019,-0.056 l -0.075,-0.14933 c -0.056,-0.13067 -0.1493,-0.29867 -0.2987,-0.504 l -0.2426,-0.28 c -0.093,-0.0933 -0.1867,-0.20534 -0.3174,-0.29867 -0.112,-0.0933 -0.2426,-0.18667 -0.3733,-0.28 -0.1493,-0.0747 -0.2987,-0.14933 -0.448,-0.20533 -0.075,-0.0373 -0.1493,-0.056 -0.2427,-0.0933 -0.075,-0.0187 -0.1493,-0.0373 -0.224,-0.056 l -0.224,-0.056 c -0.075,0 -0.168,-0.0187 -0.2426,-0.0187 -0.075,0 -0.1494,-0.0187 -0.224,-0.0187 -0.075,0 -0.1494,0 -0.224,0 h -0.2054 c -0.075,0.0187 -0.1306,0.0187 -0.2053,0.0187 l -0.336,0.056 c -0.112,0.0187 -0.1867,0.0373 -0.2427,0.056 z m 0.336,5.97333 c 0,-1.456 0,-2.94933 -0.019,-4.40533 0.2613,-0.112 0.4853,-0.18667 0.8773,-0.26134 0.019,0 0.037,-0.0187 0.037,-0.0187 h 0.1307 c 0.1307,0 0.2427,0 0.3547,0 h 0.075 c 0.019,0 0.037,0.0187 0.056,0.0187 0.112,0.0187 0.2054,0.056 0.3174,0.0747 0.019,0.0187 0.056,0.0187 0.075,0.0373 0.1307,0.056 0.2054,0.112 0.2987,0.168 0.037,0 0.112,0.0747 0.1493,0.0933 0.075,0.056 0.1307,0.112 0.1867,0.168 0.019,0.0187 0.093,0.112 0.1307,0.14933 l 0.112,0.168 c 0.037,0.0747 0.075,0.13067 0.093,0.18667 l 0.093,0.26133 c 0.019,0.056 0.019,0.13067 0.037,0.18667 l 0.019,0.20533 c 0,0.112 0,0.224 0,0.336 -0.019,0.0187 -0.019,0.056 -0.037,0.112 -0.093,0.41067 -0.2987,0.76533 -0.5413,1.064 -0.4294,0.46667 -0.7654,0.69067 -1.3814,1.008 -0.336,0.18667 -0.6906,0.31733 -1.064,0.448 z" />
      <path
         id="path841"
         style="font-style:normal;font-variant:normal;font-weight:normal;font-stretch:normal;font-family:'XPLOR Bold';-inkscape-font-specification:'XPLOR Bold, ';fill:#df1a3a;fill-opacity:1"
         d="m -1906.0765,183.6064 c -2.7813,-0.76533 -4.76,1.97867 -5.32,4.33067 -0.6346,2.66933 -0.336,6.40267 1.9227,8.25067 0.952,0.80266 2.1653,1.13866 3.3973,0.80266 1.1947,-0.29866 2.1654,-1.30666 2.7254,-2.352 0.7093,-1.30666 0.9706,-2.8 0.9893,-4.29333 0,-2.576 -0.8773,-5.936 -3.7147,-6.73867 z m -0.9706,11.18134 c -0.056,0 -0.112,0 -0.168,-0.0187 0.093,0 -0.1867,-0.0373 -0.224,-0.0373 -0.037,-0.0187 -0.056,-0.0187 -0.075,-0.0187 l -0.056,-0.0373 c -0.093,-0.056 -0.1867,-0.13067 -0.2987,-0.18667 l -0.037,-0.0373 c -0.112,-0.056 -0.1867,-0.168 -0.28,-0.26134 -0.168,-0.18666 -0.224,-0.29866 -0.3733,-0.54133 -0.5974,-0.98933 -0.7467,-2.20267 -0.7467,-3.36 0,-1.15733 0.224,-2.352 0.8027,-3.34133 0.4293,-0.728 0.9893,-1.08267 1.5493,-1.08267 h 0.168 c -0.093,0 0.168,0.056 0.2053,0.056 0.037,0 0.056,0.0187 0.075,0.0187 0.019,0 0.037,0.0187 0.056,0.0373 0.093,0.056 0.168,0.112 0.28,0.168 l 0.056,0.056 c 0.112,0.0747 0.1867,0.168 0.28,0.26133 0.168,0.18667 0.224,0.28 0.3733,0.52267 0.5974,0.98933 0.7467,2.24 0.7467,3.36 -0.019,1.19467 -0.224,2.352 -0.8027,3.36 -0.4293,0.728 -0.9893,1.064 -1.5306,1.08267 z m 4.2,-3.50934 c 0,0.112 -0.019,0.224 -0.019,0.31734 -0.019,0.0933 -0.019,0.20533 -0.037,0.29866 l -0.056,0.31734 c -0.019,0.112 -0.037,0.224 -0.075,0.336 -0.019,0.112 -0.056,0.224 -0.075,0.336 -0.037,0.13066 -0.075,0.24266 -0.112,0.336 -0.037,0.112 -0.075,0.24266 -0.1306,0.35466 -0.056,0.112 -0.093,0.224 -0.1494,0.336 -0.112,0.224 -0.224,0.46667 -0.3546,0.65334 -0.1307,0.20533 -0.2614,0.41066 -0.4294,0.59733 -0.3173,0.35467 -0.6533,0.63467 -0.952,0.85867 -0.3173,0.224 -0.5973,0.37333 -0.8026,0.448 -0.112,0.0373 -0.2054,0.0747 -0.28,0.0933 l -0.075,0.0187 c -0.112,0 -0.1867,-0.0747 -0.2053,-0.168 0,-0.0933 0.075,-0.18667 0.168,-0.18667 0,0 0.056,0 0.075,-0.0187 0.019,0 0.093,-0.0187 0.1867,-0.056 0.1867,-0.0747 0.4667,-0.18666 0.7653,-0.392 0.28,-0.168 0.616,-0.42933 0.9334,-0.76533 0.168,-0.168 0.3173,-0.35467 0.448,-0.54133 0.1493,-0.18667 0.2426,-0.41067 0.3733,-0.616 0.056,-0.112 0.093,-0.224 0.1493,-0.336 0.056,-0.112 0.093,-0.224 0.1494,-0.31734 l 0.112,-0.336 c 0.037,-0.112 0.075,-0.224 0.093,-0.336 0.037,-0.112 0.056,-0.20533 0.093,-0.31733 l 0.056,-0.29867 c 0.037,-0.112 0.037,-0.20533 0.056,-0.31733 0.019,-0.0933 0.037,-0.18667 0.037,-0.29867 0.019,-0.18666 0.037,-0.35466 0.037,-0.504 0.019,-0.13066 0.019,-0.26133 0.019,-0.37333 v -0.336 c 0,0 0,0.13067 0.019,0.336 v 0.37333 c 0,0.14934 -0.019,0.31734 -0.019,0.504 z" />
      <path
         id="path843"
         style="font-style:normal;font-variant:normal;font-weight:normal;font-stretch:normal;font-family:'XPLOR Bold';-inkscape-font-specification:'XPLOR Bold, ';fill:#df1a3a;fill-opacity:1"
         d="m -1891.0601,187.37346 c -0.037,-1.08267 -0.1307,-2.16533 -0.1307,-3.22933 0,-1.624 -2.4826,-1.624 -2.4826,0 -0.019,2.05333 0.2613,4.088 0.1493,6.16 -0.019,0.616 -0.056,0.80266 -0.1493,1.30666 -0.037,0.224 -0.093,0.448 -0.168,0.672 -0.019,0.112 -0.056,0.224 -0.093,0.31734 -0.019,0.056 -0.037,0.0747 -0.037,0.0933 -0.037,0.0373 -0.056,0.0747 -0.075,0.112 -0.075,0.168 -0.168,0.31733 -0.2613,0.448 0.019,0 0,0.0187 -0.056,0.112 0.019,-0.0373 0.037,-0.0747 0.056,-0.112 l -0.112,0.168 c -0.056,0.0373 -0.093,0.0747 -0.1493,0.13067 l -0.075,0.0747 c 0.019,-0.0373 0.056,-0.056 0.075,-0.0747 -0.037,0.0187 -0.112,0.0933 -0.1494,0.112 -0.056,0.0373 -0.112,0.0747 -0.1866,0.112 -0.019,0 -0.037,0.0187 -0.075,0.0373 0.019,-0.0187 0.056,-0.0373 0.075,-0.0373 0.093,-0.056 -0.1307,0.056 -0.168,0.056 -0.1307,0.0373 -0.2427,0.0747 -0.3734,0.0933 0.093,-0.0187 -0.224,0.0187 -0.2426,0.0187 h -0.4107 c -0.3547,0 -0.2987,-0.0187 -0.56,-0.0747 -0.093,-0.0187 -0.1867,-0.056 -0.2613,-0.0747 -0.019,0 -0.037,-0.0187 -0.075,-0.0187 0.019,0 0.037,0 0.075,0.0187 0.075,0.0187 -0.168,-0.0747 -0.2054,-0.0747 l -0.224,-0.14934 c 0.1307,0.0933 -0.1493,-0.13066 -0.1866,-0.168 -0.019,-0.0187 -0.093,-0.112 -0.1307,-0.14933 -0.019,-0.0187 -0.019,-0.0187 0,0 l -0.1307,-0.18667 c -0.056,-0.0747 -0.093,-0.18666 -0.1493,-0.29866 0,-0.0187 -0.019,-0.0373 -0.019,-0.0373 0.056,0.20534 -0.093,-0.18666 0,0 0,-0.0187 -0.019,-0.0373 -0.019,-0.0747 -0.093,-0.20534 -0.1494,-0.42934 -0.2054,-0.65334 -0.019,-0.13066 -0.056,-0.24266 -0.075,-0.35466 0,-0.0747 -0.019,-0.14934 -0.037,-0.20534 0.019,0.056 0.019,0.056 0,-0.0373 v -0.056 c -0.28,-2.25867 0.168,-4.57333 0.3734,-6.79467 l 0.056,-0.48533 c 0.056,-0.672 -0.616,-1.25067 -1.2507,-1.25067 -0.728,0 -1.1947,0.57867 -1.2507,1.25067 -0.336,3.752 -1.9786,10.50933 2.8,12.152 2.2027,0.74667 4.7227,-0.13067 5.7494,-2.24 0.9706,-2.016 0.896,-4.424 0.7653,-6.608 z m -0.4667,3.36 c -0.093,0.85867 -0.2613,1.69867 -0.5413,2.48267 -0.1493,0.37333 -0.3173,0.728 -0.5227,1.04533 -0.2053,0.31733 -0.4293,0.59733 -0.672,0.80267 -0.2426,0.20533 -0.504,0.37333 -0.7466,0.48533 -0.2427,0.0933 -0.4667,0.168 -0.6347,0.20533 -0.093,0.0187 -0.1867,0.0187 -0.2613,0.0373 -0.056,0 -0.1307,0.0187 -0.168,0.0187 -0.112,0 -0.1494,0 -0.1494,0 l 0.1494,-0.0187 c 0.037,0 0.112,0 0.168,-0.0187 0.075,0 0.168,-0.0187 0.2426,-0.0373 0.1867,-0.0373 0.4107,-0.112 0.6347,-0.224 0.2427,-0.112 0.504,-0.28 0.728,-0.48534 0.224,-0.224 0.448,-0.48533 0.6347,-0.82133 0.2053,-0.31733 0.3546,-0.65333 0.4853,-1.02667 0.2427,-0.76533 0.392,-1.60533 0.4667,-2.464 0.075,-0.84 0.075,-1.71733 0.037,-2.52 -0.037,-0.80266 -0.093,-1.54933 -0.168,-2.184 -0.075,-0.63466 -0.1493,-1.15733 -0.224,-1.53066 -0.056,-0.37334 -0.093,-0.56 -0.093,-0.56 -0.019,-0.112 0.037,-0.224 0.1306,-0.24267 0.112,-0.0187 0.2054,0.0373 0.224,0.168 l 0.093,0.57867 c 0.056,0.37333 0.112,0.91466 0.168,1.54933 0.075,0.65333 0.112,1.41867 0.1306,2.20267 0,0.82133 -0.019,1.69866 -0.112,2.55733 z m -2.4453,1.96 c 0.019,-0.0373 0.019,-0.056 0.037,-0.0747 z" />
      <path
         id="path845"
         style="font-style:normal;font-variant:normal;font-weight:normal;font-stretch:normal;font-family:'XPLOR Bold';-inkscape-font-specification:'XPLOR Bold, ';fill:#df1a3a;fill-opacity:1"
         d="m -1889.0145,192.2045 c 0,1.41867 0,2.78134 0.019,3.88267 v 0.0373 c -0.1494,0.57867 0.1493,1.26934 0.9146,1.232 2.1094,-0.0933 4.7974,-0.616 6.272,-2.25866 1.232,-1.41867 1.0827,-3.45334 -0.037,-4.90934 -0.448,-0.56 -1.008,-0.84 -1.6427,-0.97066 0.5787,-0.84 0.8027,-1.86667 0.5414,-2.912 -0.2614,-1.064 -1.12,-1.848 -2.0907,-2.24 -1.176,-0.46667 -2.5387,-0.0933 -3.528,0.54133 -0.037,0.0373 -0.075,0.0373 -0.093,0.0747 -0.2427,0.14933 -0.3734,0.41066 -0.3734,0.728 v 5.30133 c -0.28,0.224 -0.4293,0.57867 -0.3173,0.98933 0.056,0.20534 0.168,0.37334 0.336,0.504 z m 2.576,-6.496 c 0.019,0 0.037,0 0.112,0 h 0.28 c 0.037,0 0.056,0 0.075,0 l 0.037,0.0187 c 0.093,0.0187 0.168,0.0373 0.2613,0.0747 h 0.056 c 0.019,0.0187 0.019,0.0187 0.037,0.0187 0.075,0.0373 0.168,0.0747 0.2426,0.13067 l 0.112,0.0747 c 0.056,0.0373 0.112,0.0933 0.1494,0.13066 0,0.0373 0.075,0.0933 0.093,0.13067 0.037,0.0373 0.075,0.0933 0.093,0.13067 0.037,0.0747 0.075,0.13066 0.093,0.18666 -0.056,-0.0933 0.056,0.14934 0.075,0.20534 0,0.056 0.019,0.0933 0.019,0.14933 0,-0.0373 0.037,0.13067 0.037,0.168 0,0.0933 -0.019,0.18667 -0.019,0.28 0,0.0187 -0.019,0.0373 -0.037,0.0933 -0.056,0.336 -0.224,0.616 -0.4293,0.87734 -0.3733,0.392 -0.6533,0.56 -1.1573,0.84 -0.2614,0.14933 -0.56,0.26133 -0.8587,0.35466 -0.019,-1.288 -0.019,-2.55733 -0.037,-3.64 0.224,-0.0933 0.4106,-0.14933 0.7466,-0.20533 z m 2.352,5.376 c 0.019,0 0.019,0.0187 0.019,0.0187 h 0.075 c 0.093,0.0187 0.168,0.056 0.2614,0.0747 h 0.037 c 0.019,0.0187 0.037,0.0187 0.056,0.0187 0.075,0.056 0.1493,0.0933 0.2053,0.13067 -0.168,-0.0933 0.056,0.0747 0.093,0.0933 0.019,0.0373 0.037,0.0747 0.075,0.0933 0,0 0.019,0.056 0.056,0.0933 0.1307,0.20533 0.1494,0.28 0.224,0.48533 0.019,0.0933 0.037,0.18667 0.075,0.28 l 0.019,0.168 c 0.019,0.14934 0.019,0.29867 0.019,0.42934 v 0.0187 c -0.019,0 -0.019,0.0187 -0.019,0.0187 0,0.112 -0.056,0.224 -0.075,0.31733 v 0.0187 c -0.019,0 -0.019,0.0187 -0.019,0.0187 l -0.093,0.20533 c -0.037,0.0187 -0.056,0.056 -0.075,0.0933 -0.019,0.0187 -0.075,0.0747 -0.093,0.112 -0.093,0.0933 -0.2053,0.20534 -0.3173,0.29867 0,0.0187 0,0.0187 -0.019,0.0187 0,0 -0.019,0 -0.019,0.0187 -0.093,0.0747 -0.1866,0.112 -0.28,0.168 -0.1306,0.0747 -0.2613,0.168 -0.4106,0.24267 -0.075,0.0187 -0.1494,0.056 -0.224,0.0933 l -0.093,0.0373 c -0.3173,0.13066 -0.6346,0.224 -0.9706,0.336 -0.5227,0.14933 -1.0454,0.26133 -1.5867,0.336 v -3.37867 c 0.224,-0.112 0.4107,-0.20533 0.6347,-0.28 v -0.0187 c 0.037,0 0.037,-0.0187 0.093,-0.0373 0.075,-0.0187 0.168,-0.056 0.2427,-0.0933 0.1866,-0.0747 0.3546,-0.13067 0.5413,-0.18667 0.168,-0.0747 0.3733,-0.112 0.56,-0.168 0.093,0 0.1867,-0.0187 0.28,-0.056 h 0.056 c 0.037,0 0.093,0 0.1307,-0.0187 0.1866,-0.0187 0.3733,0 0.5413,0 z m 1.6613,3.77067 c 0.056,-0.056 0.112,-0.112 0.168,-0.18667 l 0.1307,-0.18666 c 0.056,-0.056 0.093,-0.13067 0.1493,-0.18667 0.037,-0.0747 0.056,-0.13067 0.112,-0.20533 0.019,-0.056 0.037,-0.13067 0.075,-0.18667 0.037,-0.0747 0.056,-0.13067 0.075,-0.18667 0.019,-0.0187 0.019,-0.0747 0.037,-0.0933 0,-0.0187 0.019,-0.056 0.019,-0.0933 l 0.056,-0.14934 c 0,-0.056 0,-0.112 0.019,-0.18666 0.019,-0.0933 0.019,-0.18667 0.019,-0.24267 0.019,-0.13067 0.019,-0.20533 0.019,-0.20533 v -0.0373 c 0,-0.0747 0.075,-0.13066 0.1493,-0.13066 0.093,0 0.1307,0.0933 0.1307,0.168 0,0 0,0.0933 -0.019,0.224 0,0.0933 -0.019,0.18666 -0.056,0.29866 0,0.056 0,0.112 -0.019,0.168 -0.037,0.056 -0.037,0.112 -0.075,0.168 0,0.0373 0,0.0747 -0.019,0.0933 -0.019,0.0373 -0.019,0.0747 -0.037,0.0933 -0.037,0.0747 -0.075,0.13067 -0.093,0.20533 l -0.112,0.18667 c -0.037,0.0747 -0.075,0.14933 -0.1306,0.20533 -0.037,0.0747 -0.075,0.13067 -0.1307,0.20534 l -0.168,0.18666 c -0.075,0.056 -0.112,0.14934 -0.168,0.20534 -0.075,0.056 -0.1307,0.13066 -0.1867,0.168 -0.1306,0.13066 -0.2613,0.224 -0.392,0.31733 -0.075,0.056 -0.1493,0.0933 -0.2053,0.14933 -0.037,0.0187 -0.075,0.0373 -0.093,0.056 -0.037,0.0187 -0.075,0.056 -0.112,0.056 -0.075,0.0373 -0.1494,0.0747 -0.2054,0.13067 -0.075,0.0187 -0.1306,0.056 -0.2053,0.0747 -0.1493,0.0747 -0.2613,0.13066 -0.3733,0.168 -0.1307,0.056 -0.2427,0.0747 -0.336,0.112 -0.093,0.0373 -0.1867,0.056 -0.2427,0.0747 -0.1493,0.0187 -0.224,0.056 -0.224,0.056 0,0 0.075,-0.0373 0.2053,-0.0747 0.075,-0.0187 0.168,-0.056 0.2614,-0.0933 0.093,-0.0187 0.2053,-0.056 0.2986,-0.112 0.1307,-0.056 0.2427,-0.112 0.392,-0.168 0.075,-0.0373 0.112,-0.0933 0.1867,-0.112 0.056,-0.0373 0.1307,-0.0933 0.1867,-0.13066 l 0.112,-0.056 c 0.019,-0.0187 0.056,-0.056 0.093,-0.0747 0.056,-0.056 0.1307,-0.0933 0.1867,-0.14933 0.1306,-0.0933 0.2426,-0.20534 0.3546,-0.31734 0.056,-0.056 0.1307,-0.13066 0.168,-0.20533 z" />
      <path
         id="path847"
         style="font-style:normal;font-variant:normal;font-weight:normal;font-stretch:normal;font-family:'XPLOR Bold';-inkscape-font-specification:'XPLOR Bold, ';fill:#df1a3a;fill-opacity:1"
         d="m -1874.6513,193.61353 c -0.168,-0.616 -0.8214,-0.98934 -1.4187,-0.82134 l -1.008,0.28 c 0,-0.87733 0,-1.77333 0,-2.65066 v -3.528 c 0,-0.98934 0,-1.97867 0,-2.94934 v -1.232 c 0,-0.63466 -0.5227,-1.15733 -1.1573,-1.15733 -0.6347,0 -1.1574,0.52267 -1.1574,1.15733 v 1.232 c 0,0.98934 0,1.97867 0,2.968 v 3.528 c 0,0.97067 0,1.96 0,2.94934 v 1.232 c 0,0.74666 0.7467,1.32533 1.4747,1.12 0.8027,-0.24267 1.6053,-0.46667 2.4267,-0.69067 0.019,0 0.019,-0.0187 0.037,-0.0187 0.616,-0.168 0.9707,-0.80266 0.8027,-1.41866 z m -2.9307,-11.256 c 0.056,0 0.112,0.056 0.112,0.112 l -0.112,9.76266 -0.112,-9.76266 c 0,-0.056 0.037,-0.112 0.112,-0.112 z" />
      <path
         id="path849"
         style="font-style:normal;font-variant:normal;font-weight:normal;font-stretch:normal;font-family:'XPLOR Bold';-inkscape-font-specification:'XPLOR Bold, ';fill:#df1a3a;fill-opacity:1"
         d="m -1863.5526,191.8697 c -0.168,-0.52267 -0.672,-0.76533 -1.176,-0.672 -2.2213,0.448 -4.536,1.30667 -6.5147,2.632 l 0.112,-1.97867 c 0.8027,-0.448 1.5867,-0.87733 2.3894,-1.288 1.064,-0.57866 0.112,-2.184 -0.952,-1.60533 l -1.3067,0.69067 c 0.075,-1.344 0.1867,-2.66934 0.224,-4.032 l 1.8853,-0.672 c 0.9334,-0.29867 1.8667,-0.616 2.8,-0.896 1.1387,-0.392 0.6534,-2.20267 -0.5226,-1.82934 -1.008,0.336 -2.0347,0.672 -3.024,1.02667 -0.6907,0.224 -1.3814,0.46667 -2.0534,0.74667 -0.504,0.168 -1.2506,0.37333 -1.3813,0.98933 -0.112,0.46667 0.093,0.82133 0.4107,1.02667 -0.056,1.49333 -0.1867,3.024 -0.2614,4.536 0,0.0747 -0.019,0.13066 -0.019,0.18666 -0.3734,0.31734 -0.336,0.84 -0.056,1.19467 -0.056,1.30667 -0.1307,2.59467 -0.2054,3.88267 -0.056,0.85866 1.0454,1.19466 1.6054,0.65333 0.1306,-0.13067 0.28,-0.224 0.4293,-0.35467 l 0.1867,-0.168 c 0.1306,-0.0933 0.28,-0.168 0.392,-0.26133 0.28,-0.20533 0.5786,-0.37333 0.8773,-0.57867 1.68,-1.02666 3.5467,-1.71733 5.4693,-2.09066 0.5227,-0.0933 0.8027,-0.672 0.6907,-1.13867 z m -0.392,0.14933 c -0.019,0.0373 -0.019,0.0373 -0.019,0.056 v 0.056 c -0.037,0.0933 -0.075,0.20534 -0.1866,0.28 -0.093,0.0933 -0.224,0.168 -0.3734,0.224 -0.168,0.056 -0.336,0.0933 -0.5413,0.13067 l -0.28,0.056 c -0.019,0 -0.037,0 -0.075,0.0187 -0.019,0 -0.056,0 -0.075,0.0187 -0.056,0 -0.112,0.0187 -0.168,0.0187 -0.2054,0.056 -0.4294,0.112 -0.6347,0.18667 -0.2427,0.0747 -0.4667,0.13066 -0.7093,0.224 -0.1307,0.0187 -0.2427,0.056 -0.3547,0.0747 -0.112,0.056 -0.2427,0.0933 -0.3547,0.13067 -0.2426,0.0933 -0.448,0.20533 -0.7093,0.29867 l -0.6533,0.28 c -0.224,0.112 -0.4294,0.224 -0.616,0.29866 -0.1867,0.112 -0.3734,0.224 -0.5227,0.336 -0.168,0.112 -0.3173,0.168 -0.4293,0.26134 -0.1307,0.0933 -0.2427,0.168 -0.336,0.24266 l -0.2054,0.14934 c 0.037,-0.0373 0.093,-0.0747 0.1867,-0.14934 0.093,-0.0747 0.2053,-0.168 0.336,-0.26133 0.112,-0.0933 0.2613,-0.168 0.4293,-0.28 0.1494,-0.112 0.336,-0.224 0.5227,-0.336 0.168,-0.0933 0.3733,-0.224 0.5973,-0.31733 0.2054,-0.112 0.4294,-0.20534 0.6534,-0.31734 0.2426,-0.112 0.448,-0.224 0.7093,-0.31733 l 0.336,-0.112 c 0.1307,-0.0373 0.2427,-0.0933 0.3547,-0.13067 0.2613,-0.0933 0.4666,-0.168 0.7093,-0.24266 0.224,-0.0747 0.4667,-0.13067 0.6347,-0.18667 l 0.168,-0.056 c 0.037,0 0.056,-0.0187 0.093,-0.0187 l 0.075,-0.0187 c 0.112,-0.0187 0.1866,-0.056 0.28,-0.0747 0.1866,-0.0373 0.3546,-0.0747 0.4853,-0.13067 0.1307,-0.0373 0.2427,-0.112 0.2987,-0.18666 0.056,-0.056 0.075,-0.112 0.075,-0.168 v -0.0187 c 0,0 0,-0.0187 0,-0.0187 v -0.0373 c 0,-0.0747 0.075,-0.112 0.1494,-0.112 0.093,0 0.1493,0.056 0.1493,0.14933 z" />
    </g>
  </g>
</svg>
