<?xml version="1.0" encoding="UTF-8" standalone="no"?>
<!-- Created with Inkscape (http://www.inkscape.org/) -->

<svg
   xmlns:dc="http://purl.org/dc/elements/1.1/"
   xmlns:cc="http://creativecommons.org/ns#"
   xmlns:rdf="http://www.w3.org/1999/02/22-rdf-syntax-ns#"
   xmlns:svg="http://www.w3.org/2000/svg"
   xmlns="http://www.w3.org/2000/svg"
   xmlns:sodipodi="http://sodipodi.sourceforge.net/DTD/sodipodi-0.dtd"
   xmlns:inkscape="http://www.inkscape.org/namespaces/inkscape"
   width="82.021286mm"
   height="17.198872mm"
   viewBox="0 0 82.021286 17.198872"
   version="1.1"
   id="svg835"
   inkscape:version="0.92.2 (5c3e80d, 2017-08-06)"
   sodipodi:docname="logo.svg">
  <defs
     id="defs829" />
  <sodipodi:namedview
     id="base"
     pagecolor="#ffffff"
     bordercolor="#666666"
     borderopacity="1.0"
     inkscape:pageopacity="0"
     inkscape:pageshadow="2"
     inkscape:zoom="2.8284271"
     inkscape:cx="219.63905"
     inkscape:cy="3.7055209"
     inkscape:document-units="mm"
     inkscape:current-layer="layer1"
     showgrid="true"
     showborder="true"
     inkscape:pagecheckerboard="true"
     fit-margin-top="0"
     fit-margin-left="0"
     fit-margin-right="0"
     fit-margin-bottom="0"
     inkscape:measure-start="0,0"
     inkscape:measure-end="0,0"
     inkscape:window-width="1920"
     inkscape:window-height="1001"
     inkscape:window-x="-9"
     inkscape:window-y="-9"
     inkscape:window-maximized="1"
     inkscape:snap-grids="false"
     inkscape:snap-to-guides="false"
     inkscape:snap-others="false" />
  <metadata
     id="metadata832">
    <rdf:RDF>
      <cc:Work
         rdf:about="">
        <dc:format>image/svg+xml</dc:format>
        <dc:type
           rdf:resource="http://purl.org/dc/dcmitype/StillImage" />
        <dc:title></dc:title>
      </cc:Work>
    </rdf:RDF>
  </metadata>
  <g
     inkscape:label="Layer 1"
     inkscape:groupmode="layer"
     id="layer1"
     transform="translate(124.35432,-106.499)">
    <path
       style="opacity:1;fill:#ffffff;fill-opacity:1;fill-rule:nonzero;stroke:none;stroke-width:3.77952766;stroke-linecap:round;stroke-linejoin:round;stroke-miterlimit:4;stroke-dasharray:none;stroke-dashoffset:0;stroke-opacity:1;paint-order:stroke fill markers"
       d="M 8.0005951,3.0039457 C 7.9914245,5.0039853 3.2322708,9.6253784 3.232233,9.63001 L 3.000595,38.003946 c -1.999405,0.0079 3.5513315,5.800587 3.5559711,5.800647 l 15.4440289,0.199353 c 0.0084,3.000052 7.000608,-1.992148 6,-4 v -29 c 2.000608,1.992227 1.008408,-7.9999633 -1,-9.0000003 z M 38.884766,3.1289062 c -1.990797,0.011249 -6.884171,9.8750398 -7.821671,10.0781628 -2.949454,0.639041 -5.063603,15.607484 0.9375,32.796877 2.00063,1.007853 4.99083,2.000053 2,0 l 18.000001,2 c -2.991593,2.000053 7.409009,-1.441941 6.408402,-3.449794 -4.85494,-9.742081 3.591598,-20.550206 4.591598,-34.550206 3.000608,1.992227 0.0084,-6.9999633 -2,-7.0000003 z M 75.008982,3.0039827 C 76.999812,1.0040222 64.062478,3.6945862 64.062466,3.6992162 l -0.06187,24.3047298 c 2,0 3,1 3,1 l 6,4 v 11 c -1.999404,0.0079 -1.009204,5.000065 0,3 l 15,-1 c -1.991626,6.5e-5 0,-1 0,-2 l 3,-12 3,2 c 0.0084,3.00004 4.000586,0.0078 3,-3 V 9.0039458 c 1.000586,0.9922269 -0.991614,-5.9999631 -1,-4.0000001 -7.991614,-3.9999631 -12.43652,5.2407583 -20.991614,-1.999963 z m 39.991618,0.999963 c 2.99082,-1.9999605 -5.68688,-0.9966282 -5.68833,-0.9922295 l -2.31167,3.9922296 -7,1 C 98.991652,7.0039882 99.437253,9.9446083 99.43704,9.9492034 L 98.000596,41.003946 c 4.000004,2 3.776584,6.10675 8.814844,6.474806 l 16.93908,1.237437 c 1.12009,0.08183 6.24655,-2.704018 4.24608,-2.712243 l -2,-23 h 3 c 0.008,4.00004 4.00044,2.00784 2,0 l 1,-15.0000002 c 0,0 -3.995,-4.0000001 -4,-4.0000001 z m 23.4897,-1.3669142 c -5,5.0000001 -5.24048,10.1200555 -5.24053,10.1246845 l -0.37132,31.262106 c -2.16527,0.269758 1.37514,4.160965 1.11485,2.615256 l 9.93823,0.353554 c -0.12758,2.12132 3.67591,-0.0032 2.65965,-1.554596 l -0.70711,-19.961864 c 1.24744,3.499139 1.33083,0.582324 0.36356,-1.980938 l 1.9846,-0.353554 -0.13258,16.677625 c -1.45841,1.197843 3.27547,6.061385 3.0152,3.233975 l 11.22592,-0.486136 c -2.55826,3.226175 5.48829,0.08518 5.48808,0.08059 l -1.14093,-24.823513 c -0.5625,-2.8171 -3.508,-3.9453 -3.508,-3.9453 l -4.61742,-0.625 -2.3125,-2.5547 c -1.125,0.80787 1.6845,0.49219 0.0545,-2.8203102 l -4.73242,-4 c 0.87,-1.125 1.88022,-0.9270992 -3.12739,-0.9283946 3,-2.00463002 -2.44811,-2.57160547 -4.82811,-0.1966054 z m 38.90596,0.2455543 c 0,0 -5.93202,1.2406169 -4.34103,0.3613634 l -0.61872,4.9037989 -3.58602,-0.1689767 c -2.0369,-0.7040693 6e-5,-0.0046 0,0 l -0.26516,20.0727636 c -2.65141,-1.321232 -0.87872,3.898176 -0.87389,3.896887 l 5.16724,0.883884 -0.26517,21.014712 c -1.67894,3.628501 0.0934,3.013343 0.0984,3.013004 l 27.28052,-1.856156 c 0.005,-3.39e-4 -3.6185,0.437951 -3.61592,0.434142 7.2532,-10.707899 6.29199,-47.4932822 2.56326,-47.8630271 0,0 -1.41721,-3.6317323 -1.42221,-3.6317323 z m 37.59531,2.1304284 C 216.224,3.0684706 213.12541,3.7833874 213.12541,3.7833874 l -0.15857,4.9908921 c 0,-0.0046 -3.00822,-0.8912995 -3.01321,-0.8916835 L 205.3629,7.5290426 c -2.2143,-0.9703004 -2.83844,3.6271224 -2.83842,3.6317224 l 0.0884,26.714006 c -1.94415,-0.790912 -0.87866,4.867697 1.33583,3.543334 l 7.41916,0.53033 c 2.81624,0.201308 -0.0804,1.852955 1.95254,-0.449742 l -0.0884,3.320622 c -2.91681,0.358153 2.10773,5.635809 2.643,3.250139 l 10.36674,-1.209407 c 4.07087,1.59099 9.55377,-3.538738 10.26105,-5.487878 L 236.4144,8.9008062 c -0.53033,-2.1259504 -0.90096,-1.9403003 -4.70166,-5.6526109 z m 33.28857,-0.8929915 c -1.5568,2.040742 -1.55491,2.036516 -1.5568,2.040742 l -2.91681,3.3648158 -0.0442,3.5701615 -0.61872,1.112654 -1.80824,-0.397747 c -0.88873,-0.926848 -1.99874,0.179976 -1.99874,0.184576 v 27.995638 c 0,0 3.62892,4.603855 3.63392,4.603994 l 19.10459,0.53033 c 1.77276,-1.105215 2.57115,-3.317765 2.57127,-3.322363 l 2.74004,-10.705326 2.6057,-1.325825 c 0,0 1.15706,0.836489 1.15705,0.831889 l -0.0884,-25.3379403 c -1.10505,-0.6233444 -4.24564,-3.3665673 -4.25064,-3.3665673 z m 31.23744,-0.751301 c -1.18824,-0.00485 -6.32979,6.6765003 -6.32977,6.6811303 l 0.13258,33.97397 0.54033,2.350091 14.71726,0.30936 c -0.48114,1.811961 3.32256,-0.05199 3.32256,-0.05199 l -0.7513,-2.967068 c 0.79549,2.523668 1.86125,0.05101 0.80549,-1.671578 l 12.41916,0.883883 c 0.44694,2.828428 5.22225,0.659665 2.79223,-0.317159 l 1.05324,-24.766387 c -7.75,-0.41085 -9.37802,-9.9448025 -10.28925,-8.5703 l -4.42858,-0.3677985 c 3.57473,-1.1490486 0.29936,-2.0297321 -1.77777,-0.2131709 L 291.4144,5.8514081 c 3.0936,-0.4023776 0.7925,-2.3501012 -1.06866,-2.4384896 z"
       id="rect5379"
       transform="matrix(0.26458333,0,0,0.26458333,-124.35432,106.499)"
       inkscape:connector-curvature="0"
       sodipodi:nodetypes="cscscccccsscccsccscsccccccccccccccsccscssccccccccsccccccccccscccccccccccccscsccsssccccccscsccscccccccccsccccscscsccscccssccccccccccccccs" />
    <path
       style="opacity:1;fill:#000000;fill-opacity:1;fill-rule:nonzero;stroke:none;stroke-width:1;stroke-linecap:round;stroke-linejoin:round;stroke-miterlimit:4;stroke-dasharray:none;stroke-dashoffset:0;stroke-opacity:1;paint-order:stroke fill markers"
       d="m -123.02951,106.50251 c -0.001,0 -0.002,7.9e-4 -0.002,0.002 v 1.31878 c 0,0.001 7.9e-4,0.002 0.002,0.002 -0.001,0 -0.002,8e-4 -0.002,0.002 0,-0.001 -8e-4,-0.002 -0.002,-0.002 h -1.31878 c -0.001,0 -0.002,8e-4 -0.002,0.002 v 10.5792 c 0,10e-4 7.9e-4,0.002 0.002,0.002 h 1.31878 c 0.001,0 0.002,-8e-4 0.002,-0.002 0,10e-4 7.9e-4,0.002 0.002,0.002 -0.001,0 -0.002,7.9e-4 -0.002,0.002 v 1.31879 c 0,10e-4 7.9e-4,0.002 0.002,0.002 h 5.28754 c 10e-4,0 0.002,-7.9e-4 0.002,-0.002 v -1.31879 c 0,-10e-4 -8e-4,-0.002 -0.002,-0.002 10e-4,0 0.002,-8e-4 0.002,-0.002 0,10e-4 7.9e-4,0.002 0.002,0.002 h 1.31879 c 10e-4,0 0.002,-8e-4 0.002,-0.002 v 1.32292 c 0,0.001 8e-4,0.002 0.002,0.002 h 1.31878 c 0.001,0 0.002,-7.9e-4 0.002,-0.002 0,0.001 7.9e-4,0.002 0.002,0.002 h 1.32291 c -10e-4,0 -0.002,8e-4 -0.002,0.002 v 1.31878 c 0,0.001 7.9e-4,0.002 0.002,0.002 h 3.96462 c 10e-4,0 0.002,-7.9e-4 0.002,-0.002 v -1.31878 c 0,-0.001 -8e-4,-0.002 -0.002,-0.002 h 1.32292 c 10e-4,0 0.002,-7.9e-4 0.002,-0.002 v -1.31879 c 0,-10e-4 -7.9e-4,-0.002 -0.002,-0.002 10e-4,0 0.002,-8e-4 0.002,-0.002 v -1.31878 c 0,-0.001 -7.9e-4,-0.002 -0.002,-0.002 10e-4,0 0.002,-7.9e-4 0.002,-0.002 v -2.64583 c 0,10e-4 8e-4,0.002 0.002,0.002 h 1.31878 c 0.001,0 0.002,-8e-4 0.002,-0.002 v 2.64583 c 0,0.001 7.9e-4,0.002 0.002,0.002 h 1.31878 c 10e-4,0 0.002,-7.9e-4 0.002,-0.002 v 3.96874 c 0,10e-4 7.9e-4,0.002 0.002,0.002 h 1.31879 c 10e-4,0 0.002,-7.9e-4 0.002,-0.002 0,10e-4 8e-4,0.002 0.002,0.002 h 2.6417 c 0.001,0 0.002,-7.9e-4 0.002,-0.002 v -1.32085 h 1.32085 c 0.001,0 0.002,-7.9e-4 0.002,-0.002 v -1.32085 h 2.645833 v 1.32085 c 0,10e-4 7.94e-4,0.002 0.0021,0.002 h 2.642912 v 1.32085 c 0,10e-4 7.94e-4,0.002 0.0021,0.002 h 3.964617 c 0.0013,0 0.0021,-7.9e-4 0.0021,-0.002 v -1.32291 c 0,0.001 7.94e-4,0.002 0.0021,0.002 h 2.641701 c 0.0013,0 0.0021,-7.9e-4 0.0021,-0.002 v 1.32291 c 0,10e-4 7.94e-4,0.002 0.0021,0.002 h 1.318784 c 0.0013,0 0.0021,-7.9e-4 0.0021,-0.002 0,10e-4 7.94e-4,0.002 0.0021,0.002 h 1.318784 c 0.0013,0 0.0021,-7.9e-4 0.0021,-0.002 0,10e-4 7.93e-4,0.002 0.0021,0.002 h 1.318784 c 0.0013,0 0.0021,-7.9e-4 0.0021,-0.002 v -1.32291 c 0,0.001 7.94e-4,0.002 0.0021,0.002 h 1.318783 c 0.0013,0 0.0021,-7.9e-4 0.0021,-0.002 0,0.001 7.94e-4,0.002 0.0021,0.002 h 3.964617 c 0.0013,0 0.0021,-7.9e-4 0.0021,-0.002 v 3.96875 c 0,0.001 7.93e-4,0.002 0.0021,0.002 h 1.318784 c 0.0013,0 0.0021,-7.9e-4 0.0021,-0.002 0,0.001 7.93e-4,0.002 0.0021,0.002 h 5.287534 c 0.0013,0 0.0021,-7.9e-4 0.0021,-0.002 v -1.32085 h 1.32085 c 0.0013,0 0.0021,-8e-4 0.0021,-0.002 v -2.6417 c 0,-10e-4 -7.94e-4,-0.002 -0.0021,-0.002 h 3.969912 v 1.32085 c 0,0.001 7.93e-4,0.002 0.0021,0.002 h 3.964617 c 0.0013,0 0.0021,-8e-4 0.0021,-0.002 v -1.32085 h 1.32085 c 0.0013,0 0.0021,-7.9e-4 0.0021,-0.002 v -1.32086 h 1.32085 c 0.0013,0 0.0021,-7.9e-4 0.0021,-0.002 v 1.32291 c 0,10e-4 7.94e-4,0.002 0.0021,0.002 h 1.318783 c 0.0013,0 0.0021,-7.9e-4 0.0021,-0.002 0,10e-4 7.94e-4,0.002 0.0021,0.002 h 1.320498 v 1.32085 c 0,0.001 7.94e-4,0.002 0.0021,0.002 h 3.964617 c 0.0013,0 0.0021,-8e-4 0.0021,-0.002 v -2.6417 c 0,-10e-4 -7.94e-4,-0.002 -0.0021,-0.002 h 1.324933 v 1.32085 c 0,10e-4 7.93e-4,0.002 0.0021,0.002 h 1.3208 v 1.32085 c 0,0.001 7.94e-4,0.002 0.0021,0.002 h 3.964617 c 0.0013,0 0.0021,-8e-4 0.0021,-0.002 v -1.32291 c 0,0.001 7.94e-4,0.002 0.0021,0.002 h 1.318783 c 0.0013,0 0.0021,-7.9e-4 0.0021,-0.002 0,0.001 7.94e-4,0.002 0.0021,0.002 h 3.964617 c 0.0013,0 0.0021,-7.9e-4 0.0021,-0.002 v -2.6417 c 0,-0.001 -7.94e-4,-0.002 -0.0021,-0.002 0.0013,0 0.0021,-7.9e-4 0.0021,-0.002 v -6.61045 c 0,-10e-4 -7.94e-4,-0.002 -0.0021,-0.002 h -1.318784 c -0.0013,0 -0.0021,8e-4 -0.0021,0.002 0,-10e-4 -7.93e-4,-0.002 -0.0021,-0.002 0.0013,0 0.0021,-7.9e-4 0.0021,-0.002 v -1.31878 c 0,-0.001 -7.93e-4,-0.002 -0.0021,-0.002 h -1.322917 c 0.0013,0 0.0021,-8e-4 0.0021,-0.002 v -1.31879 c 0,-0.001 -7.94e-4,-0.002 -0.0021,-0.002 h -1.322917 c 0.0013,0 0.0021,-7.9e-4 0.0021,-0.002 v -1.31878 c 0,-10e-4 -7.94e-4,-0.002 -0.0021,-0.002 h -5.287533 c -0.0013,0 -0.0021,7.9e-4 -0.0021,0.002 v 1.31878 c 0,0.001 7.94e-4,0.002 0.0021,0.002 h -1.32705 c 0.0013,0 0.0021,-7.9e-4 0.0021,-0.002 v -1.31878 c 0,-10e-4 -7.94e-4,-0.002 -0.0021,-0.002 h -6.61045 c -0.0013,0 -0.0021,7.9e-4 -0.0021,0.002 v 1.31878 c 0,0.001 7.94e-4,0.002 0.0021,0.002 h -2.649966 c 0.0013,0 0.0021,-7.9e-4 0.0021,-0.002 v -1.31878 c 0,-10e-4 -7.93e-4,-0.002 -0.0021,-0.002 h -6.610451 c -0.0013,0 -0.0021,7.9e-4 -0.0021,0.002 v 1.31878 c 0,0.001 7.94e-4,0.002 0.0021,0.002 h -2.649966 c 0.0013,0 0.0021,-7.9e-4 0.0021,-0.002 v -1.31878 c 0,-10e-4 -7.94e-4,-0.002 -0.0021,-0.002 h -7.933367 c -0.0013,0 -0.0021,7.9e-4 -0.0021,0.002 v 1.31878 c 0,0.001 7.94e-4,0.002 0.0021,0.002 h -1.322917 c -0.0013,0 -0.0021,8e-4 -0.0021,0.002 v 1.31879 c 0,0.001 7.93e-4,0.002 0.0021,0.002 h -1.327049 c 0.0013,0 0.0021,-8e-4 0.0021,-0.002 v -1.31879 c 0,-0.001 -7.94e-4,-0.002 -0.0021,-0.002 h -1.322917 c 0.0013,0 0.0021,-7.9e-4 0.0021,-0.002 v -1.31878 c 0,-10e-4 -7.94e-4,-0.002 -0.0021,-0.002 h -5.287534 c -0.0013,0 -0.0021,7.9e-4 -0.0021,0.002 v 1.31878 c 0,0.001 7.93e-4,0.002 0.0021,0.002 h -1.327049 c 0.0013,0 0.0021,-7.9e-4 0.0021,-0.002 v -1.31878 c 0,-10e-4 -7.94e-4,-0.002 -0.0021,-0.002 h -5.287534 c -0.0013,0 -0.0021,7.9e-4 -0.0021,0.002 0,-10e-4 -7.93e-4,-0.002 -0.0021,-0.002 h -1.318784 c -0.0013,0 -0.0021,7.9e-4 -0.0021,0.002 v 1.32292 c 0,-0.001 -7.93e-4,-0.002 -0.0021,-0.002 h -1.318784 c -0.0013,0 -0.0021,7.9e-4 -0.0021,0.002 0,-0.001 -7.94e-4,-0.002 -0.0021,-0.002 0.0013,0 0.0021,-8e-4 0.0021,-0.002 v -1.31879 c 0,-10e-4 -7.94e-4,-0.002 -0.0021,-0.002 h -2.641701 c -0.001,0 -0.002,8e-4 -0.002,0.002 0,-10e-4 -7.9e-4,-0.002 -0.002,-0.002 h -1.31878 c -0.001,0 -0.002,8e-4 -0.002,0.002 v 1.32292 c 0,-0.001 -7.9e-4,-0.002 -0.002,-0.002 h -1.31879 c -0.001,0 -0.002,7.9e-4 -0.002,0.002 0,-0.001 -8e-4,-0.002 -0.002,-0.002 0.001,0 0.002,-7.9e-4 0.002,-0.002 v -1.31878 c 0,-10e-4 -8e-4,-0.002 -0.002,-0.002 h -10.5792 c -0.001,0 -0.002,7.9e-4 -0.002,0.002 0,-10e-4 -7.9e-4,-0.002 -0.002,-0.002 h -1.31879 c -0.001,0 -0.002,7.9e-4 -0.002,0.002 v 1.32291 c 0,-0.001 -7.9e-4,-0.002 -0.002,-0.002 h -1.31879 c -0.001,0 -0.002,8e-4 -0.002,0.002 0,-0.001 -8e-4,-0.002 -0.002,-0.002 0.001,0 0.002,-7.9e-4 0.002,-0.002 v -1.31878 c 0,-10e-4 -8e-4,-0.002 -0.002,-0.002 z m 9.25835,1.32085 c 0,0.001 8e-4,0.002 0.002,0.002 h 3.96875 c -0.001,0 -0.002,7.9e-4 -0.002,0.002 v 1.31878 c 0,10e-4 8e-4,0.002 0.002,0.002 h 1.32292 c -10e-4,0 -0.002,8e-4 -0.002,0.002 v 2.64584 c 0,-0.001 -7.9e-4,-0.002 -0.002,-0.002 h -1.31878 c -0.001,0 -0.002,7.9e-4 -0.002,0.002 v 1.32291 c 0,-10e-4 -7.9e-4,-0.002 -0.002,-0.002 h -3.96462 c -0.001,0 -0.002,8e-4 -0.002,0.002 v 1.31879 c 0,0.001 8e-4,0.002 0.002,0.002 h 3.96462 c 0.001,0 0.002,-8e-4 0.002,-0.002 v 2.64583 c 0,10e-4 8e-4,0.002 0.002,0.002 h -1.32292 c -0.001,0 -0.002,7.9e-4 -0.002,0.002 v 1.31878 c 0,0.001 7.9e-4,0.002 0.002,0.002 h -1.32291 c -0.001,0 -0.002,7.9e-4 -0.002,0.002 v -1.32291 c 0,-10e-4 -7.9e-4,-0.002 -0.002,-0.002 h -2.6417 c -10e-4,0 -0.002,8e-4 -0.002,0.002 v -1.32292 c 0,-0.001 -8e-4,-0.002 -0.002,-0.002 h -1.31878 c -0.001,0 -0.002,8e-4 -0.002,0.002 v -5.29166 c 0,-0.001 -7.9e-4,-0.002 -0.002,-0.002 0.001,0 0.002,-8e-4 0.002,-0.002 0,0.001 7.9e-4,0.002 0.002,0.002 h 1.31878 c 10e-4,0 0.002,-8e-4 0.002,-0.002 v -1.32292 c 0,10e-4 7.9e-4,0.002 0.002,0.002 h 1.31879 c 0.001,0 0.002,-7.9e-4 0.002,-0.002 z m 13.22917,0 c 0,0.001 8e-4,0.002 0.002,0.002 h 1.322919 c -0.0013,0 -0.0021,7.9e-4 -0.0021,0.002 v 5.28753 c 0,10e-4 7.94e-4,0.002 0.0021,0.002 h -1.322919 c -10e-4,0 -0.002,8e-4 -0.002,0.002 v 2.6417 c 0,0.001 8e-4,0.002 0.002,0.002 h -1.32292 c -0.001,0 -0.002,8e-4 -0.002,0.002 v 1.32085 h -1.32085 c -0.001,0 -0.002,8e-4 -0.002,0.002 v 1.32085 h -1.32085 c -10e-4,0 -0.002,7.9e-4 -0.002,0.002 v -3.96874 c 0,-0.001 -7.9e-4,-0.002 -0.002,-0.002 h -1.31878 c -0.001,0 -0.002,7.9e-4 -0.002,0.002 v -2.64583 c 0,-0.001 -7.9e-4,-0.002 -0.002,-0.002 h -1.31879 c -0.001,0 -0.002,7.9e-4 -0.002,0.002 v -2.64584 c 0,-10e-4 -8e-4,-0.002 -0.002,-0.002 0.001,0 0.002,-7.9e-4 0.002,-0.002 v -1.31878 c 0,-0.001 -8e-4,-0.002 -0.002,-0.002 h 2.64997 c -10e-4,0 -0.002,7.9e-4 -0.002,0.002 v 3.96462 c 0,0.001 7.9e-4,0.002 0.002,0.002 h 1.31878 c 0.001,0 0.002,-8e-4 0.002,-0.002 v 1.32291 c 0,10e-4 7.9e-4,0.002 0.002,0.002 h 1.31879 c 0.001,0 0.002,-7.9e-4 0.002,-0.002 v -3.96875 c 0,10e-4 8e-4,0.002 0.002,0.002 h 1.31878 c 10e-4,0 0.002,-7.9e-4 0.002,-0.002 z m 5.291672,0 c 0,0.001 7.94e-4,0.002 0.0021,0.002 h 3.96875 c -0.0013,0 -0.0021,7.9e-4 -0.0021,0.002 v 1.31878 c 0,10e-4 7.94e-4,0.002 0.0021,0.002 h 1.322916 c -0.0013,0 -0.0021,8e-4 -0.0021,0.002 v 2.6417 c 0,0.001 7.93e-4,0.002 0.0021,0.002 h -1.322916 c -0.0013,0 -0.0021,8e-4 -0.0021,0.002 v 1.32085 h -3.966684 c -0.0013,0 -0.0021,8e-4 -0.0021,0.002 v 1.31879 c 0,0.001 7.93e-4,0.002 0.0021,0.002 h 3.966684 v 2.6479 c 0,-10e-4 -7.94e-4,-0.002 -0.0021,-0.002 h -1.318784 c -0.0013,0 -0.0021,7.9e-4 -0.0021,0.002 v 1.31877 c 0,0.001 7.93e-4,0.002 0.0021,0.002 h -1.324932 v -1.32084 c 0,-0.001 -7.94e-4,-0.002 -0.0021,-0.002 h -2.643717 v -1.32085 c 0,-0.001 -7.93e-4,-0.002 -0.0021,-0.002 h -1.322917 c 0.0013,0 0.0021,-8e-4 0.0021,-0.002 v -2.6417 c 0,-10e-4 -7.94e-4,-0.002 -0.0021,-0.002 0.0013,0 0.0021,-8e-4 0.0021,-0.002 v -2.64584 c 0,0.001 7.93e-4,0.002 0.0021,0.002 h 1.318784 c 0.0013,0 0.0021,-7.9e-4 0.0021,-0.002 v -1.32291 c 0,10e-4 7.94e-4,0.002 0.0021,0.002 h 1.318784 c 0.0013,0 0.0021,-8e-4 0.0021,-0.002 z m -26.460402,0.002 h 3.97288 c -10e-4,0 -0.002,7.9e-4 -0.002,0.002 v 2.6417 c 0,0.001 8e-4,0.002 0.002,0.002 -10e-4,0 -0.002,7.9e-4 -0.002,0.002 v 1.32292 c 0,-0.001 -7.9e-4,-0.002 -0.002,-0.002 h -1.31879 c -10e-4,0 -0.002,7.9e-4 -0.002,0.002 v -1.32292 c 0,-0.001 -8e-4,-0.002 -0.002,-0.002 h -1.31878 c -0.001,0 -0.002,7.9e-4 -0.002,0.002 v 3.96462 c 0,0.001 7.9e-4,0.002 0.002,0.002 h 1.31878 c 10e-4,0 0.002,-8e-4 0.002,-0.002 v 2.64583 c 0,10e-4 7.9e-4,0.002 0.002,0.002 h -2.64583 c -10e-4,0 -0.002,7.9e-4 -0.002,0.002 v -1.05833 c 0,-10e-4 -7.9e-4,-0.002 -0.002,-0.002 h -1.31879 c -10e-4,0 -0.002,7.9e-4 -0.002,0.002 v -6.8833 c 0,10e-4 7.9e-4,0.002 0.002,0.002 h 1.31879 c 10e-4,0 0.002,-8e-4 0.002,-0.002 v -1.31879 c 0,-0.001 -7.9e-4,-0.002 -0.002,-0.002 z m 34.395835,0 h 2.649967 c -0.0013,0 -0.0021,7.9e-4 -0.0021,0.002 v 1.31878 c 0,10e-4 7.94e-4,0.002 0.0021,0.002 h 1.322916 c -0.0013,0 -0.0021,8e-4 -0.0021,0.002 v 1.31879 c 0,0.001 7.93e-4,0.002 0.0021,0.002 h 1.322917 c -0.0013,0 -0.0021,7.9e-4 -0.0021,0.002 v 1.31878 c 0,0.001 7.94e-4,0.002 0.0021,0.002 h 1.322916 c -0.0013,0 -0.0021,7.9e-4 -0.0021,0.002 v 5.28754 c 0,10e-4 7.94e-4,0.002 0.0021,0.002 h -2.645833 c -0.0013,0 -0.0021,7.9e-4 -0.0021,0.002 v -3.96875 c 0,-10e-4 -7.94e-4,-0.002 -0.0021,-0.002 h -1.318784 c -0.0013,0 -0.0021,7.9e-4 -0.0021,0.002 v -1.32292 c 0,-0.001 -7.93e-4,-0.002 -0.0021,-0.002 h -1.318784 c -0.0013,0 -0.0021,7.9e-4 -0.0021,0.002 v 6.61458 c 0,-0.001 -7.94e-4,-0.002 -0.0021,-0.002 h -1.318783 c -0.0013,0 -0.0021,7.9e-4 -0.0021,0.002 v -1.32291 c 0,-10e-4 -7.94e-4,-0.002 -0.0021,-0.002 h -1.318784 c -0.0013,0 -0.0021,7.9e-4 -0.0021,0.002 v -2.64997 -1.31878 -1.32292 c 0,-0.001 -7.94e-4,-0.002 -0.0021,-0.002 h 1.322917 c 0.0013,0 0.0021,-7.9e-4 0.0021,-0.002 v -2.6417 c 0,-10e-4 -7.93e-4,-0.002 -0.0021,-0.002 0.0013,0 0.0021,-7.9e-4 0.0021,-0.002 v -1.31878 c 0,-0.001 -7.93e-4,-0.002 -0.0021,-0.002 z m 9.260417,0 h 5.295799 c -0.0013,0 -0.0021,7.9e-4 -0.0021,0.002 v 1.31878 c 0,10e-4 7.93e-4,0.002 0.0021,0.002 h 1.322917 c -0.0013,0 -0.0021,8e-4 -0.0021,0.002 v 1.31879 6.61458 c 0,10e-4 7.94e-4,0.002 0.0021,0.002 h -1.322917 c -0.0013,0 -0.0021,7.9e-4 -0.0021,0.002 v 2.6417 c 0,0.001 7.93e-4,0.002 0.0021,0.002 h -1.322916 c -0.0013,0 -0.0021,8e-4 -0.0021,0.002 v 1.32085 h -3.966683 c -0.0013,0 -0.0021,8e-4 -0.0021,0.002 v -2.6479 h 2.643767 c 0.0013,0 0.0021,-8e-4 0.0021,-0.002 v -1.31878 -1.32292 c 0,-0.001 -7.93e-4,-0.002 -0.0021,-0.002 h -1.318784 c -0.0013,0 -0.0021,8e-4 -0.0021,0.002 v 1.32085 h -1.322916 v -2.64376 c 0,-0.001 -7.94e-4,-0.002 -0.0021,-0.002 h -1.318784 c -0.0013,0 -0.0021,7.9e-4 -0.0021,0.002 v -2.64584 c 0,-0.001 -7.93e-4,-0.002 -0.0021,-0.002 0.0013,0 0.0021,-7.9e-4 0.0021,-0.002 v -1.31878 c 0,-0.001 -7.93e-4,-0.002 -0.0021,-0.002 0.0013,0 0.0021,-7.9e-4 0.0021,-0.002 v -1.31878 c 0,-10e-4 -7.93e-4,-0.002 -0.0021,-0.002 h 1.322916 c 0.0013,0 0.0021,-8e-4 0.0021,-0.002 v -1.31856 c 0,-0.001 -7.94e-4,-0.002 -0.0021,-0.002 z m 10.583333,0 h 3.972883 c -0.0013,0 -0.0021,7.9e-4 -0.0021,0.002 v 1.31878 c 0,10e-4 7.94e-4,0.002 0.0021,0.002 h 1.32085 v 1.32085 1.32292 c 0,0.001 7.94e-4,0.002 0.0021,0.002 h -1.322917 c -0.0013,0 -0.0021,7.9e-4 -0.0021,0.002 v 1.32085 h -3.966684 c -0.0013,0 -0.0021,7.9e-4 -0.0021,0.002 v 1.31879 c 0,0.001 7.94e-4,0.002 0.0021,0.002 h 3.966684 v 2.64583 h -1.320851 c -0.0013,0 -0.0021,7.9e-4 -0.0021,0.002 v 1.32085 h -1.322917 v -1.32085 c 0,-10e-4 -7.94e-4,-0.002 -0.0021,-0.002 h -2.645833 c 0.0013,0 0.0021,-8e-4 0.0021,-0.002 v -1.31879 c 0,-0.001 -7.94e-4,-0.002 -0.0021,-0.002 h -1.32075 v -5.29166 h 1.320851 c 0.0013,0 0.0021,-8e-4 0.0021,-0.002 v -1.31879 c 0,-10e-4 -7.94e-4,-0.002 -0.0021,-0.002 h 1.322916 c 0.0013,0 0.0021,-7.9e-4 0.0021,-0.002 v -1.31875 c 0,-10e-4 -7.94e-4,-0.002 -0.0021,-0.002 z m 9.260417,0 h 3.972882 c -0.0013,0 -0.0021,7.9e-4 -0.0021,0.002 v 1.31878 c 0,10e-4 7.94e-4,0.002 0.0021,0.002 h 1.320851 v 2.64377 c 0,0.001 7.93e-4,0.002 0.0021,0.002 -0.0013,0 -0.0021,7.9e-4 -0.0021,0.002 v 2.6417 c 0,10e-4 7.93e-4,0.002 0.0021,0.002 h -1.322916 c -0.0013,0 -0.0021,7.9e-4 -0.0021,0.002 v 1.32085 h -1.32085 c -0.0013,0 -0.0021,8e-4 -0.0021,0.002 v 2.6417 c 0,0.001 7.94e-4,0.002 0.0021,0.002 h -1.324983 v -1.32085 c 0,-0.001 -7.94e-4,-0.002 -0.0021,-0.002 h -2.6417 c -0.0013,0 -0.0021,7.9e-4 -0.0021,0.002 v -1.32292 c 0,-0.001 -7.94e-4,-0.002 -0.0021,-0.002 h -1.318784 c -0.0013,0 -0.0021,8e-4 -0.0021,0.002 v -1.32705 -1.31878 -1.32292 c 0,-0.001 -7.94e-4,-0.002 -0.0021,-0.002 0.0013,0 0.0021,-7.9e-4 0.0021,-0.002 v -1.32085 h 1.32085 c 0.0013,0 0.0021,-7.9e-4 0.0021,-0.002 v -1.32085 h 1.32085 c 0.0013,0 0.0021,-7.9e-4 0.0021,-0.002 v -1.3186 c 0,-0.001 -7.94e-4,-0.002 -0.0021,-0.002 z m 7.9375,0 h 2.649966 c -0.0013,0 -0.0021,7.9e-4 -0.0021,0.002 v 1.31878 c 0,10e-4 7.94e-4,0.002 0.0021,0.002 h 1.322916 c -0.0013,0 -0.0021,8e-4 -0.0021,0.002 v 1.31879 c 0,0.001 7.93e-4,0.002 0.0021,0.002 h 1.322917 c -0.0013,0 -0.0021,7.9e-4 -0.0021,0.002 v 1.31878 c 0,0.001 7.94e-4,0.002 0.0021,0.002 h 1.318784 c 0.0013,0 0.0021,-7.9e-4 0.0021,-0.002 v 5.29167 c 0,10e-4 7.93e-4,0.002 0.0021,0.002 h -2.645833 c -0.0013,0 -0.0021,7.9e-4 -0.0021,0.002 v -3.96875 c 0,-10e-4 -7.93e-4,-0.002 -0.0021,-0.002 h -1.318784 c -0.0013,0 -0.0021,7.9e-4 -0.0021,0.002 v -1.32292 c 0,-0.001 -7.94e-4,-0.002 -0.0021,-0.002 h -1.318783 c -0.0013,0 -0.0021,7.9e-4 -0.0021,0.002 v 6.61045 c 0,0.001 7.94e-4,0.002 0.0021,0.002 h -1.324883 v -1.32085 c 0,-0.001 -7.94e-4,-0.002 -0.0021,-0.002 h -1.3208 v -2.64377 c 0,-0.001 -7.93e-4,-0.002 -0.0021,-0.002 0.0013,0 0.0021,-7.9e-4 0.0021,-0.002 v -2.6417 c 0,-0.001 -7.93e-4,-0.002 -0.0021,-0.002 h 1.322916 c 0.0013,0 0.0021,-7.9e-4 0.0021,-0.002 v -2.64566 -1.31879 c 0,-10e-4 -7.94e-4,-0.002 -0.0021,-0.002 z m -26.454201,2.64583 c -0.0013,0 -0.0021,8e-4 -0.0021,0.002 v 2.6417 c 0,10e-4 7.94e-4,0.002 0.0021,0.002 h 1.318784 c 0.0013,0 0.0021,-7.9e-4 0.0021,-0.002 v 1.32292 c 0,0.001 7.94e-4,0.002 0.0021,0.002 h 1.318783 c 0.0013,0 0.0021,-7.9e-4 0.0021,-0.002 v -2.6417 c 0,-0.001 -7.94e-4,-0.002 -0.0021,-0.002 h -1.318783 c -0.0013,0 -0.0021,7.9e-4 -0.0021,0.002 v -1.32292 c 0,-0.001 -7.94e-4,-0.002 -0.0021,-0.002 z m 19.84375,0 c -0.0013,0 -0.0021,8e-4 -0.0021,0.002 v 1.32292 c 0,-0.001 -7.94e-4,-0.002 -0.0021,-0.002 h -1.318784 c -0.0013,0 -0.0021,7.9e-4 -0.0021,0.002 v 2.6417 c 0,0.001 7.94e-4,0.002 0.0021,0.002 h 1.318784 c 0.0013,0 0.0021,-7.9e-4 0.0021,-0.002 v -1.32292 c 0,10e-4 7.93e-4,0.002 0.0021,0.002 h 1.318784 c 0.0013,0 0.0021,-7.9e-4 0.0021,-0.002 v -2.6417 c 0,-0.001 -7.94e-4,-0.002 -0.0021,-0.002 z m -60.856241,6.61247 v 0.004 c 0,-0.001 -7.9e-4,-0.002 -0.002,-0.002 0.001,0 0.002,-7.9e-4 0.002,-0.002 z m 38.364592,0 v 0.004 c 0,-0.001 -7.94e-4,-0.002 -0.0021,-0.002 0.0013,0 0.0021,-7.9e-4 0.0021,-0.002 z m -42.333342,1.32291 c 0,0.001 8e-4,0.002 0.002,0.002 h -0.004 c 0.001,0 0.002,-8e-4 0.002,-0.002 z m 30.427092,0 v 0.004 c 0,-0.001 -7.94e-4,-0.002 -0.0021,-0.002 0.0013,0 0.0021,-7.9e-4 0.0021,-0.002 z m 43.656249,0 v 0.004 c 0,-0.001 -7.93e-4,-0.002 -0.0021,-0.002 0.0013,0 0.0021,-7.9e-4 0.0021,-0.002 z m -64.822921,1.32292 c 0,0.001 8e-4,0.002 0.002,0.002 h -0.004 c 10e-4,0 0.002,-7.9e-4 0.002,-0.002 z"
       id="rect5152"
       inkscape:connector-curvature="0" />
  </g>
</svg>
